<?xml version="1.0" standalone="no"?>
<!DOCTYPE svg PUBLIC "-//W3C//DTD SVG 20010904//EN"
 "http://www.w3.org/TR/2001/REC-SVG-20010904/DTD/svg10.dtd">
<svg version="1.0" xmlns="http://www.w3.org/2000/svg"
 width="206.000000pt" height="129.000000pt" viewBox="0 0 422.000000 263.000000"
 preserveAspectRatio="xMidYMid meet">

<g transform="translate(0.000000,263.000000) scale(0.100000,-0.100000)"
fill="#1D1E1F" stroke="none">
<path d="M368 2371 c-90 -57 -83 33 -86 -1076 -2 -679 0 -991 8 -1017 27 -94
99 -132 238 -127 83 4 93 6 129 35 79 63 73 -23 71 1100 l-3 1001 -29 37 c-42
56 -94 76 -197 76 -77 0 -89 -3 -131 -29z"/>
<path d="M1005 2384 c-45 -23 -66 -45 -86 -89 -17 -36 -19 -72 -19 -405 0
-412 2 -420 76 -476 36 -28 41 -29 150 -29 110 0 113 1 151 31 75 60 74 51 71
485 l-3 386 -28 36 c-45 59 -91 77 -194 77 -60 0 -97 -5 -118 -16z"/>
<path d="M1620 2381 c-19 -11 -43 -28 -53 -39 -47 -51 -46 -40 -46 -1072 -1
-925 0 -977 18 -1015 35 -77 91 -105 213 -105 97 0 136 16 182 73 l31 39 0
1012 0 1013 -28 36 c-45 59 -91 77 -194 77 -66 -1 -97 -6 -123 -19z"/>
<path d="M2315 2393 c-36 -9 -87 -55 -106 -97 -18 -39 -19 -85 -19 -1019 0
-1069 -3 -1017 57 -1080 15 -15 43 -32 62 -37 52 -14 186 -12 224 4 42 17 83
66 97 114 8 26 10 341 8 1023 l-3 986 -28 36 c-44 58 -91 77 -189 76 -46 -1
-92 -4 -103 -6z"/>
<path d="M2915 2384 c-48 -26 -73 -54 -90 -98 -14 -35 -16 -95 -13 -418 l3
-376 31 -39 c50 -63 83 -74 200 -71 93 3 104 5 138 31 74 57 71 36 71 472 0
434 2 423 -68 479 -37 30 -44 31 -140 34 -79 2 -109 -2 -132 -14z"/>
<path d="M3535 2383 c-46 -24 -66 -45 -86 -88 -18 -38 -19 -90 -19 -1020 0
-929 1 -982 19 -1020 23 -51 71 -92 116 -101 19 -3 72 -4 118 -3 74 4 88 7
121 33 21 16 47 47 57 70 18 39 19 86 19 1024 0 945 -1 984 -19 1020 -39 76
-94 102 -213 102 -56 -1 -93 -6 -113 -17z"/>
<path d="M1005 1141 c-49 -22 -73 -48 -91 -98 -19 -55 -19 -721 0 -776 30 -84
90 -116 216 -117 100 0 138 15 184 73 l31 39 3 366 c2 202 0 381 -3 399 -8 43
-50 92 -100 114 -55 26 -185 26 -240 0z"/>
<path d="M2915 1141 c-48 -22 -69 -44 -90 -94 -13 -30 -15 -94 -15 -394 0
-398 2 -409 69 -466 39 -33 77 -40 184 -36 74 4 88 7 121 33 74 56 76 66 76
466 0 204 -4 370 -10 391 -12 42 -51 82 -102 103 -53 23 -182 21 -233 -3z"/>
</g>
</svg>
