<?xml version="1.0" standalone="no"?>
<!DOCTYPE svg PUBLIC "-//W3C//DTD SVG 20010904//EN"
 "http://www.w3.org/TR/2001/REC-SVG-20010904/DTD/svg10.dtd">
<svg version="1.0" xmlns="http://www.w3.org/2000/svg"
 width="573.000000pt" height="436.000000pt" viewBox="0 0 573.000000 436.000000"
 preserveAspectRatio="xMidYMid meet">

<g transform="translate(0.000000,436.000000) scale(0.100000,-0.100000)"
fill="#1D1E1F" stroke="none">
<path d="M2715 4289 c-27 -5 -90 -10 -140 -13 -49 -2 -101 -9 -115 -14 -14 -5
-52 -9 -84 -10 -33 -1 -64 -6 -69 -11 -5 -5 -16 -7 -23 -4 -15 6 -84 -23 -84
-35 0 -10 -60 -32 -88 -32 -11 0 -23 -4 -27 -9 -3 -5 -19 -12 -35 -16 -17 -4
-30 -11 -30 -16 0 -5 -4 -9 -9 -9 -24 0 -141 -62 -141 -75 0 -8 -26 -28 -57
-43 -85 -41 -123 -66 -123 -78 0 -6 -11 -17 -25 -24 -14 -7 -25 -17 -25 -22 0
-4 -6 -8 -14 -8 -8 0 -21 -6 -28 -12 -7 -7 -30 -26 -50 -41 -21 -15 -38 -34
-38 -42 0 -7 -10 -15 -22 -17 -14 -2 -29 -16 -40 -36 -14 -30 -49 -75 -100
-133 -10 -10 -18 -23 -18 -29 0 -5 -8 -18 -17 -28 -32 -33 -48 -56 -88 -121
-21 -36 -56 -83 -77 -105 -23 -23 -44 -57 -50 -82 -7 -24 -16 -40 -21 -37 -6
4 -8 -2 -5 -13 3 -11 -1 -25 -9 -32 -7 -7 -13 -28 -13 -47 0 -19 -4 -36 -9
-39 -5 -3 -12 -18 -16 -33 -3 -14 -15 -38 -26 -51 -10 -14 -19 -37 -19 -52 0
-27 -21 -108 -42 -160 -15 -37 -36 -337 -28 -402 3 -32 4 -58 1 -58 -12 0 -11
-162 0 -203 12 -43 15 -64 17 -129 2 -36 22 -56 22 -22 0 11 8 14 27 12 34 -4
42 -32 17 -59 -16 -18 -16 -19 4 -19 12 0 22 -4 22 -9 0 -5 60 -7 133 -6 83 2
108 1 68 -3 -92 -10 -93 -31 -1 -24 69 5 70 4 70 -20 0 -20 -6 -27 -31 -32
-32 -6 -31 -26 2 -26 23 0 25 -15 4 -24 -26 -10 -16 -24 23 -33 27 -6 38 -14
40 -31 2 -12 -1 -22 -7 -22 -6 0 -11 -4 -11 -10 0 -5 16 -10 35 -10 19 0 35
-4 35 -8 0 -5 -10 -8 -21 -8 -12 1 -24 -5 -26 -11 -3 -9 7 -13 29 -14 18 -1
25 -3 16 -6 -24 -6 -23 -23 2 -23 14 0 21 -9 25 -34 5 -22 14 -36 26 -39 22
-6 26 -27 5 -27 -12 0 -12 -5 -3 -30 11 -30 12 -30 89 -30 43 0 78 4 78 8 0
10 80 -1 125 -16 23 -8 -4 -10 -117 -11 -118 -1 -148 -4 -148 -15 0 -14 -4
-14 582 -32 107 -4 185 -10 182 -15 -3 -5 -40 -6 -83 -3 -54 5 -80 3 -85 -5
-5 -8 20 -11 88 -11 52 0 98 -4 101 -10 4 -6 -16 -10 -54 -10 -50 0 -59 -3
-55 -15 5 -12 -5 -15 -54 -15 -59 0 -61 1 -67 29 -7 35 -17 36 -242 46 -114 4
-133 3 -133 -10 0 -10 11 -15 35 -15 19 0 35 -4 35 -10 0 -5 -36 -10 -80 -12
-47 -2 -79 -7 -78 -13 2 -5 13 -9 25 -7 16 2 26 -6 38 -28 15 -29 15 -30 -5
-30 -11 0 -20 -6 -20 -12 0 -8 -15 -14 -39 -14 -37 -2 -40 1 -82 66 -24 38
-48 69 -54 70 -5 0 -25 27 -43 60 -18 33 -39 60 -47 60 -20 0 -20 -1 17 -59
17 -28 28 -54 25 -58 -4 -3 -7 -1 -7 5 0 7 -7 12 -15 12 -8 0 -15 5 -15 11 0
6 -6 17 -14 25 -8 7 -16 19 -19 26 -2 7 -8 10 -12 6 -5 -5 0 -23 10 -43 11
-19 16 -38 12 -42 -11 -10 -47 37 -104 135 -40 69 -52 82 -70 79 -15 -3 -24 2
-28 14 -4 11 -13 19 -21 19 -17 0 -18 5 7 -59 20 -53 53 -109 72 -122 5 -4 7
-11 3 -17 -3 -5 1 -13 9 -16 8 -3 14 -9 13 -14 -7 -21 206 -312 269 -369 13
-12 24 -24 24 -27 -1 -14 12 -36 21 -36 6 0 19 -11 30 -25 11 -14 24 -25 29
-25 6 0 20 -10 32 -23 23 -23 114 -103 132 -115 54 -37 158 -103 192 -122 23
-13 40 -27 37 -31 -6 -10 60 -39 87 -39 11 0 19 -4 19 -9 0 -5 13 -12 30 -16
16 -4 32 -11 35 -16 4 -5 15 -9 25 -9 10 0 20 -5 22 -10 2 -6 30 -13 63 -15
57 -5 119 -16 195 -36 49 -13 146 -27 283 -41 113 -11 117 -12 117 -35 0 -12
5 -23 11 -23 6 0 8 7 5 16 -3 9 -6 29 -6 45 l0 29 -62 -5 c-51 -3 -56 -2 -28
5 27 7 19 8 -35 4 -67 -4 -208 16 -223 31 -4 4 7 5 23 1 76 -16 127 -19 134
-8 9 15 195 -1 216 -18 10 -9 14 3 21 62 4 40 10 63 12 51 2 -12 9 -20 15 -18
7 2 50 6 97 9 47 3 86 5 87 6 1 0 5 16 9 35 3 19 10 38 15 41 13 8 11 -5 -7
-53 l-17 -43 -93 0 c-51 0 -95 -4 -98 -8 -3 -5 -8 -28 -12 -52 -7 -42 -6 -43
17 -36 13 3 61 9 107 13 45 3 82 9 82 13 0 4 6 7 13 7 49 -4 243 39 342 77
124 47 322 145 412 204 13 8 20 19 16 26 -4 6 1 5 10 -3 12 -10 14 -17 7 -26
-9 -11 -270 -143 -355 -180 -22 -9 -49 -21 -60 -26 -58 -25 -147 -53 -205 -65
-36 -7 -76 -15 -90 -19 -14 -3 -43 -11 -65 -16 -22 -6 -87 -13 -145 -17 l-105
-7 -2 -40 c-1 -22 1 -32 4 -22 2 10 14 17 29 17 13 0 24 4 24 8 0 5 48 14 108
20 116 12 194 25 245 41 17 5 80 25 139 44 59 18 109 30 110 25 4 -10 78 16
88 32 4 7 13 10 19 6 5 -4 19 2 31 14 11 11 22 20 25 20 3 0 13 7 23 16 9 9
69 47 132 86 107 65 180 122 180 139 0 5 -23 -4 -51 -18 -41 -22 -52 -24 -59
-13 -5 8 -7 17 -4 21 14 23 -23 14 -82 -21 -77 -45 -86 -48 -77 -22 5 14 4 15
-8 6 -29 -24 -129 -73 -129 -65 0 10 -19 9 -37 -2 -7 -5 -23 -10 -35 -12 l-23
-4 24 19 c18 15 19 20 7 20 -28 0 -17 19 17 28 21 6 32 15 33 28 1 10 2 24 4
29 2 6 4 16 4 24 1 14 80 40 124 41 38 0 24 20 -15 21 -21 1 -29 3 -18 5 11 3
38 9 60 14 22 4 66 14 98 21 32 7 60 16 63 21 3 4 -4 21 -15 37 -12 16 -21 35
-21 41 0 8 -8 10 -22 6 -48 -14 -88 -18 -88 -9 0 5 19 13 42 19 28 6 44 15 46
27 3 14 0 16 -22 7 -17 -6 -26 -6 -26 0 0 6 5 10 12 10 7 0 6 6 -4 18 -9 9
-13 23 -11 30 4 10 -6 13 -41 11 -25 -2 -48 0 -51 3 -4 3 47 9 112 12 65 4
127 8 137 9 27 3 31 23 6 30 -12 3 -24 15 -27 26 -3 12 -12 21 -19 21 -8 0
-14 5 -14 10 0 6 7 10 15 10 9 0 12 6 9 15 -4 9 0 15 10 15 12 0 16 10 16 35
0 19 5 35 11 35 6 0 2 12 -9 28 l-20 27 79 0 c77 -1 78 0 73 22 -5 18 -2 23
14 23 12 0 22 9 26 23 4 14 9 18 13 11 12 -17 50 -26 58 -14 10 15 25 12 25
-6 0 -11 5 -14 16 -10 9 3 27 6 40 6 15 0 24 6 24 15 0 8 -5 15 -10 15 -6 0
-5 8 2 20 8 12 24 20 40 20 18 0 28 5 28 15 0 8 7 15 16 15 9 0 12 -5 8 -11
-4 -7 -1 -10 7 -7 8 3 15 14 17 26 2 12 8 22 14 22 6 0 8 11 6 25 -3 14 -1 28
4 31 5 3 -1 14 -13 25 l-22 19 41 0 c59 0 73 8 66 36 -4 14 -2 24 5 24 6 0 8
7 5 15 -5 12 -26 15 -105 15 -54 0 -99 -4 -99 -9 0 -5 -8 -12 -17 -14 -10 -3
-1 -5 20 -6 20 0 37 -6 37 -12 0 -6 -7 -8 -16 -5 -9 3 -41 7 -72 7 -32 1 -44
4 -28 6 22 4 26 7 15 14 -10 6 -5 9 19 9 17 0 32 5 32 10 0 6 38 10 93 10 129
0 130 1 146 67 8 35 9 59 3 65 -5 5 -36 6 -72 2 -59 -6 -61 -8 -39 -20 13 -7
32 -13 42 -14 28 0 31 -28 6 -55 -21 -21 -33 -25 -87 -25 -35 0 -73 5 -84 11
-14 8 -23 8 -27 1 -4 -6 -5 36 -3 94 l4 104 -48 -2 -49 -1 45 -7 45 -7 -46 -1
c-52 -2 -59 2 -52 29 4 15 14 19 44 19 l39 0 0 43 c0 75 -7 87 -51 87 l-39 0
0 -50 c0 -27 -5 -71 -11 -98 l-10 -50 -89 -6 c-98 -8 -112 -5 -109 27 3 40 -1
46 -28 50 -25 4 -25 4 7 7 l35 3 -35 7 c-23 5 8 7 85 8 68 0 109 -3 95 -7
l-25 -8 25 -5 c14 -3 -12 -6 -56 -7 -76 -1 -82 -3 -88 -23 -3 -13 -6 -26 -6
-30 0 -5 40 -8 89 -8 l90 0 5 43 c3 23 7 64 9 90 l5 48 -107 -5 c-254 -13
-641 -17 -641 -6 0 6 25 10 59 10 35 0 61 5 63 11 4 11 91 15 198 9 53 -4 51
-4 -25 -10 l-80 -6 83 -2 c46 -1 147 2 225 8 78 5 282 11 454 13 280 2 311 1
299 -13 -7 -8 -16 -27 -18 -42 -5 -24 -2 -28 19 -28 13 0 22 -4 19 -8 -3 -5
-33 -10 -67 -11 -35 -1 -66 -4 -71 -7 -4 -3 -8 -1 -8 4 0 5 21 13 48 18 44 8
47 11 50 42 3 29 1 33 -15 28 -37 -11 -198 -18 -188 -8 6 6 19 12 30 15 13 3
9 5 -12 6 -18 0 -33 0 -33 -1 0 -2 -3 -54 -7 -115 -5 -99 -4 -113 10 -113 11
0 17 13 21 43 11 86 14 90 13 20 l-2 -73 -32 0 -33 0 7 110 6 110 -65 0 -65 0
-6 -56 c-4 -41 -2 -60 8 -70 24 -24 43 -16 48 19 3 28 4 27 5 -10 2 -37 5 -42
30 -46 25 -4 25 -4 -5 -6 -18 0 -33 4 -33 9 0 6 -9 10 -20 10 -13 0 -20 -7
-20 -20 0 -17 7 -20 50 -20 38 0 50 -4 50 -15 0 -11 -11 -15 -47 -13 l-48 1
45 7 45 7 -47 1 -48 2 -2 -50 c-1 -27 -2 -58 -2 -67 -1 -13 7 -19 29 -20 29
-2 29 -2 5 7 -17 5 -19 8 -7 9 11 1 17 9 17 24 0 33 14 48 46 52 182 22 177
25 167 -70 -5 -45 -10 -58 -27 -65 -19 -7 -19 -9 -3 -15 9 -4 39 -4 65 -1 33
5 43 4 32 -3 -8 -6 -32 -11 -53 -11 -32 0 -36 -2 -25 -14 7 -7 18 -12 24 -9 6
2 9 -9 8 -27 -3 -39 11 -38 32 1 12 23 19 28 27 20 8 -8 7 -20 -7 -46 -21 -38
-30 -98 -14 -93 22 8 106 189 125 273 8 33 18 78 24 100 5 22 14 74 19 115 5
41 12 90 14 108 3 19 1 30 -5 27 -16 -11 -10 17 7 30 15 10 17 42 18 256 0
204 -2 257 -18 322 -16 68 -21 77 -41 77 -20 0 -22 -3 -17 -49 2 -29 0 -51 -7
-55 -5 -4 -8 -20 -6 -36 3 -17 7 -43 10 -60 4 -26 2 -29 -18 -26 -16 2 -24 12
-28 37 -6 31 -7 31 -8 7 -1 -22 -6 -28 -23 -29 -13 -1 -40 -3 -60 -5 l-38 -3
-1 47 c-1 26 -4 37 -6 25 -5 -27 -47 -32 -57 -7 -9 23 2 34 33 34 16 0 34 7
42 16 11 14 9 15 -24 9 -30 -6 -37 -4 -37 9 0 10 9 16 25 16 14 0 25 5 25 10
0 6 -28 10 -65 10 -51 0 -65 3 -65 15 0 8 7 15 15 15 27 0 18 49 -10 60 -23 9
-29 22 -28 57 1 10 -16 11 -66 7 -54 -5 -70 -3 -83 10 -9 9 -23 16 -30 16 -8
1 -6 6 6 15 12 9 42 15 78 15 32 0 58 4 58 10 0 6 -7 10 -15 10 -18 0 -19 12
-3 28 9 9 8 12 -5 12 -12 0 -17 8 -17 30 0 20 5 30 15 30 8 0 15 7 15 16 0 14
-9 16 -70 10 -47 -5 -70 -4 -70 3 0 6 7 11 16 11 10 0 14 6 10 15 -3 10 1 15
11 15 27 0 2 18 -32 23 l-30 4 34 2 c25 1 32 5 27 16 -3 8 -1 15 4 15 6 0 10
27 10 60 0 56 -2 60 -22 60 -18 0 -20 2 -8 10 23 14 7 20 -59 21 -40 1 -61 5
-60 13 3 27 -2 36 -21 36 -25 0 -26 17 -2 23 14 4 13 5 -4 6 -29 1 -64 42 -64
74 0 15 5 27 10 27 6 0 10 5 10 10 0 15 -47 12 -53 -2 -4 -10 -8 -10 -15 1 -8
11 -10 11 -15 0 -4 -10 -6 -10 -6 -1 -1 6 -8 12 -16 12 -8 0 -15 7 -15 15 0 8
5 15 11 15 20 0 -3 20 -24 21 -12 0 -16 3 -9 6 6 2 12 11 12 18 0 14 -63 27
-68 14 -2 -5 -22 -9 -45 -10 -23 0 -36 -3 -29 -6 6 -2 12 -11 12 -19 0 -9 11
-14 34 -14 19 0 38 -5 41 -11 4 -5 18 -14 31 -19 13 -5 24 -16 24 -25 0 -11
11 -15 38 -15 46 0 67 -16 47 -36 -9 -10 -41 -14 -102 -14 -78 0 -91 3 -107
21 -11 13 -21 18 -25 11 -3 -5 -17 -12 -31 -15 -19 -3 -16 -5 12 -6 46 -1 58
-17 19 -24 -36 -8 -87 6 -83 23 2 9 -6 11 -29 6 -17 -3 -46 -6 -63 -6 -28 0
-31 -3 -31 -30 l0 -30 194 0 c107 0 192 -2 190 -5 -3 -2 -91 -5 -196 -5 -166
-1 -195 1 -218 16 -18 11 -25 23 -22 36 3 10 1 16 -4 12 -5 -3 -9 0 -9 5 0 6
14 11 30 11 17 0 30 5 30 10 0 6 -17 10 -37 10 -28 0 -34 3 -23 10 20 13 137
13 145 0 3 -5 33 -10 66 -10 46 0 59 3 59 15 0 12 13 15 59 15 34 0 63 -5 67
-12 5 -8 -9 -10 -54 -5 -36 3 -60 1 -56 -4 6 -11 111 -12 118 -1 16 26 -18 32
-204 37 -110 3 -187 2 -176 -3 19 -8 19 -9 -1 -14 -24 -6 -33 -1 -33 19 0 10
23 13 98 14 53 1 89 3 79 6 -9 2 -15 9 -12 14 4 5 -34 9 -90 9 -95 0 -96 0
-90 -22 5 -16 0 -13 -14 10 -12 18 -21 39 -21 47 0 7 -4 17 -10 20 -5 3 -10 3
-10 -2 0 -12 24 -75 34 -93 7 -12 6 -13 -5 -2 -17 16 -37 16 -21 0 7 -7 12
-15 12 -18 0 -10 -58 -11 -102 -1 -48 11 -51 10 -42 -13 5 -14 9 -15 15 -5 6
11 17 11 54 1 64 -17 93 -15 98 6 4 13 5 12 6 -5 0 -12 6 -25 11 -28 6 -3 10
-18 9 -33 0 -26 0 -26 -9 -4 -12 28 -18 30 -103 34 -52 3 -66 1 -63 -9 3 -7 1
-13 -4 -13 -8 0 -30 60 -30 83 0 4 14 7 30 7 23 0 30 5 30 19 0 11 8 22 18 24
9 3 -2 5 -25 6 -32 1 -43 -3 -43 -14 0 -12 -19 -15 -108 -15 l-108 0 3 -42 c2
-40 -1 -36 -12 19 -3 13 -14 23 -28 25 -36 5 -25 23 16 26 20 2 35 7 32 13 -4
5 30 9 84 9 75 0 92 -3 101 -17 10 -16 10 -16 6 2 -5 19 -2 20 64 17 53 -3 70
0 71 10 5 45 4 68 -1 68 -4 0 -12 11 -18 25 -10 22 -9 25 8 25 11 0 20 4 20 9
0 5 -8 8 -17 6 -10 -1 -12 0 -5 2 7 3 11 10 9 16 -2 8 -44 13 -131 14 -70 1
-130 4 -134 7 -3 3 56 6 131 6 78 0 137 -4 137 -9 0 -5 7 -17 16 -25 17 -17
11 -36 -12 -36 -8 0 -14 -4 -14 -8 0 -16 25 -32 51 -32 23 0 26 3 22 25 -3 13
-11 30 -19 36 -25 20 -15 24 66 26 94 3 109 -11 18 -15 -35 -2 -64 -5 -66 -7
-2 -1 3 -19 12 -38 17 -42 13 -47 -30 -47 l-32 0 21 -40 c21 -38 25 -40 68
-40 50 0 87 24 55 36 -9 3 -13 11 -9 17 4 6 0 8 -9 4 -10 -3 -19 2 -25 16 -15
34 -5 47 37 47 28 0 40 5 43 18 4 16 4 16 12 -2 5 -12 3 -21 -6 -27 -9 -6 0
-9 28 -9 42 0 42 -1 31 -24 -9 -20 -16 -24 -38 -19 -15 3 -31 0 -34 -6 -10
-16 194 -15 231 1 28 12 27 12 -22 18 -27 4 -42 8 -32 8 9 1 17 7 17 12 0 6 7
10 15 10 23 0 18 18 -7 23 -20 4 -20 4 4 6 34 1 47 21 16 22 -19 1 -17 3 7 8
44 9 33 24 -27 37 -29 7 -44 13 -33 14 l20 1 -20 9 c-11 5 -17 9 -12 9 4 1 -2
10 -14 22 -25 25 -17 39 9 16 25 -23 30 -21 24 8 -2 14 -7 25 -11 25 -4 0 -18
14 -30 31 -13 18 -17 29 -10 25 8 -4 5 0 -6 9 -13 10 -29 13 -47 10 -23 -5
-26 -4 -21 14 6 25 -20 39 -41 22 -11 -9 -15 -7 -19 10 -4 15 -11 20 -24 17
-10 -3 -24 1 -31 9 -7 7 -17 11 -23 8 -5 -4 -9 -2 -9 4 0 9 -43 22 -90 26 -14
1 -51 10 -83 19 -32 9 -65 16 -74 16 -22 0 -93 32 -93 42 0 13 -28 9 -33 -4
-4 -10 -8 -10 -15 1 -8 11 -24 12 -66 7 -35 -4 -56 -2 -56 4 0 12 -221 11
-295 -1z m231 -19 c54 0 74 -15 32 -23 -19 -4 -18 -5 6 -6 25 -1 28 -4 24 -26
-4 -17 -1 -25 8 -25 9 0 14 12 14 31 l0 32 61 -7 c34 -3 78 -10 98 -15 20 -5
72 -17 116 -26 144 -29 258 -76 363 -147 45 -31 51 -42 27 -52 -18 -7 -57 23
-48 37 3 6 1 7 -5 3 -6 -4 -30 5 -53 20 -33 21 -43 23 -50 12 -6 -10 -9 -10
-9 0 0 6 -10 12 -22 12 -19 0 -20 2 -8 10 13 9 13 10 0 10 -13 0 -13 1 0 10 8
5 12 10 8 10 -3 0 -15 3 -25 6 -15 5 -15 4 -3 -5 13 -9 13 -11 0 -11 -13 0
-13 -1 0 -10 12 -7 8 -10 -15 -11 -31 -1 -28 -3 18 -13 15 -4 27 -11 27 -17 0
-6 -7 -9 -15 -5 -8 3 -14 0 -12 -7 1 -8 -22 -14 -73 -18 l-75 -6 88 1 c48 1
87 -2 87 -6 0 -5 8 -8 18 -8 10 0 24 -6 31 -12 11 -11 13 -10 9 2 -3 8 -14 16
-26 18 -13 2 -22 10 -21 20 0 11 3 12 6 5 2 -7 16 -13 29 -13 17 0 24 -6 24
-20 0 -16 7 -20 34 -20 54 0 96 -11 96 -26 0 -10 -14 -14 -51 -14 -37 0 -48
-3 -43 -12 4 -7 -6 -1 -23 15 -28 26 -32 27 -134 25 -98 -2 -100 -2 -24 -5 74
-4 105 -14 105 -34 0 -5 -18 -9 -40 -9 -45 0 -54 16 -12 23 15 2 -29 4 -98 4
-120 -1 -122 -1 -35 -6 89 -6 90 -6 30 -11 -33 -3 -114 -5 -179 -5 -119 0
-120 0 -126 25 -7 25 -7 25 -12 -5 l-5 -30 -2 33 -1 32 98 1 c64 1 88 4 72 9
-17 5 -19 8 -7 9 35 2 16 18 -20 17 -21 -1 -98 3 -170 8 -120 8 -133 10 -133
27 0 13 -7 19 -22 18 -29 -2 -87 -16 -70 -18 8 -1 12 -18 12 -51 0 -43 -3 -50
-19 -50 -12 0 -21 -8 -24 -22 l-4 -23 -2 23 c-1 15 7 26 22 32 19 8 17 9 -15
9 -37 1 -38 0 -39 -36 l-2 -38 -6 35 -6 35 -95 3 c-106 3 -151 22 -54 22 32 1
92 3 132 6 49 4 72 2 72 -5 0 -6 7 -11 15 -11 8 0 15 9 15 20 0 19 -7 20 -97
22 l-98 2 100 5 100 6 -87 9 c-56 5 -122 4 -190 -3 -56 -7 -165 -16 -241 -21
-142 -9 -189 -19 -101 -21 l49 -2 -45 -8 c-25 -4 -61 -7 -80 -7 l-35 0 30 8
30 8 -31 1 c-17 0 -53 -2 -80 -6 l-49 -7 35 -7 c19 -4 -1 -5 -46 -2 -69 3 -81
1 -81 -12 0 -9 6 -14 14 -11 8 3 11 1 8 -4 -3 -6 3 -10 13 -10 11 0 34 -3 52
-7 24 -4 31 -3 26 5 -8 14 33 15 74 3 22 -7 19 -9 -22 -16 -27 -4 -64 -4 -84
0 -22 4 -34 3 -30 -3 6 -9 -51 -23 -89 -21 -16 1 -15 2 5 8 18 5 25 14 26 34
1 16 -4 26 -10 24 -6 -3 -10 -10 -8 -16 1 -7 -2 -10 -7 -7 -12 8 -42 -4 -36
-14 3 -4 -3 -14 -12 -21 -14 -12 -16 -12 -9 0 6 9 5 12 -5 9 -8 -3 -13 -10
-12 -16 1 -5 -4 -16 -12 -22 -11 -9 -15 -9 -15 -1 0 16 -12 13 -40 -9 -152
-122 -190 -154 -189 -164 3 -23 -1 -36 -12 -36 -8 0 -8 5 1 15 7 8 8 15 2 15
-5 0 -31 -26 -58 -57 -27 -31 -56 -64 -64 -72 -31 -33 -92 -122 -87 -127 3 -3
76 0 164 7 87 7 208 12 268 11 157 -3 158 -2 178 65 10 31 15 58 12 61 -2 3
-42 0 -87 -6 -83 -12 -174 -15 -150 -5 7 3 68 10 135 17 l122 11 9 43 c5 23
13 42 19 42 9 0 7 -8 -10 -62 -4 -15 1 -18 28 -17 19 1 26 3 16 6 -14 4 -17
11 -13 26 3 12 6 27 6 33 0 8 58 14 188 19 103 3 194 8 202 11 30 8 40 -9 28
-48 l-11 -35 -75 -7 c-41 -3 -109 -6 -151 -6 -42 0 -111 -5 -153 -12 -69 -10
-78 -14 -86 -37 -24 -70 -31 -95 -27 -99 8 -8 50 7 70 25 60 55 287 123 408
123 22 0 28 7 36 38 23 80 32 76 -156 69 -222 -8 -457 -25 -513 -36 -41 -9
-184 -35 -253 -46 -20 -3 -27 -1 -24 8 2 6 10 11 17 9 7 -1 55 6 108 18 53 11
108 21 122 21 20 1 18 3 -10 9 -19 4 -27 8 -17 9 9 0 17 4 17 9 1 4 21 30 46
57 34 37 40 41 22 15 -12 -19 -27 -39 -33 -43 -5 -5 6 -6 25 -3 103 15 120 19
120 29 0 5 3 7 6 4 4 -4 1 -13 -6 -22 -11 -13 -6 -15 36 -16 40 -1 44 -3 24
-9 -18 -6 -4 -8 45 -8 73 0 210 14 163 17 -26 1 -27 3 -16 27 10 20 9 27 -2
34 -8 5 -11 12 -7 17 5 4 12 1 16 -6 7 -11 11 -9 20 5 16 29 13 7 -5 -27 -8
-17 -14 -32 -12 -34 2 -1 44 -5 93 -8 50 -3 81 -2 70 2 -14 6 4 10 57 15 71 7
78 10 87 34 10 26 10 26 8 -8 -2 -34 -3 -35 -52 -41 l-50 -6 43 -1 c45 -2 52
-15 33 -64 -5 -13 -12 -34 -15 -48 -10 -49 -41 -70 -103 -70 -31 0 -74 -5 -97
-11 -22 -6 -59 -15 -81 -21 -60 -16 -187 -90 -181 -105 6 -14 -6 -18 -17 -6
-4 3 3 18 15 31 l23 25 -25 -13 c-16 -9 -86 -14 -215 -17 -104 -2 -245 -8
-313 -13 -68 -6 -134 -10 -148 -10 -15 0 -24 -6 -24 -15 0 -9 9 -15 23 -15 20
0 20 -1 -7 -15 -15 -8 -31 -13 -35 -10 -8 4 -24 -24 -86 -145 -54 -105 -79
-165 -110 -255 -9 -27 -21 -59 -26 -70 -5 -11 -13 -38 -18 -60 -6 -22 -15 -58
-21 -80 -27 -95 -49 -257 -50 -355 0 -65 4 -100 9 -91 7 11 29 13 108 8 l100
-7 -4 28 c-2 15 0 52 5 82 l10 55 1 -88 1 -87 -105 2 c-72 2 -105 0 -105 -8 0
-15 55 -24 150 -25 41 0 84 -4 95 -9 25 -11 14 -13 -55 -10 -30 1 -52 -1 -48
-5 15 -15 513 -26 1181 -25 483 0 687 -3 687 -11 0 -7 121 -9 405 -7 223 2
405 0 405 -4 0 -8 -88 -11 -317 -12 -55 -1 -105 -4 -109 -8 -4 -5 5 -8 19 -8
15 0 27 -4 27 -10 0 -5 -27 -8 -62 -6 -47 3 -53 2 -23 -3 22 -4 -56 -7 -172
-7 -164 1 -213 4 -213 14 0 9 43 12 182 12 100 0 179 2 176 5 -3 3 -295 7
-649 9 -354 3 -669 7 -699 10 -72 6 -548 15 -535 10 6 -2 37 -8 70 -13 l60 -9
-72 -1 c-59 -1 -73 2 -73 14 0 9 -10 15 -22 16 -13 1 -34 2 -48 4 -14 1 -93 6
-177 9 -83 4 -165 11 -183 16 l-31 9 5 -42 c3 -23 11 -84 17 -134 l13 -93 54
0 c33 0 51 -4 47 -10 -7 -11 -95 -13 -111 -2 -6 4 -14 34 -18 67 -26 221 -26
220 -11 231 9 7 11 15 4 25 -5 8 -9 55 -9 104 0 156 69 466 136 612 8 17 14
36 14 42 0 6 4 19 9 29 5 9 32 64 61 122 50 101 151 271 177 298 7 8 17 22 23
31 44 84 355 371 400 371 5 0 10 4 10 8 0 5 17 17 37 28 44 22 56 31 90 62 18
17 28 20 33 12 6 -9 9 -9 15 0 4 7 2 16 -5 20 -8 5 -7 9 6 14 10 4 16 4 12 1
-3 -4 2 -15 13 -26 15 -15 27 -17 64 -13 25 4 42 11 38 16 -3 6 1 15 8 20 11
8 11 9 -1 4 -69 -23 -91 -28 -97 -22 -4 3 -1 12 7 19 10 9 11 9 6 0 -4 -7 -3
-13 3 -13 14 0 32 35 23 44 -3 4 1 4 11 0 9 -3 14 -10 11 -15 -6 -11 -1 -11
20 -3 9 3 14 9 11 14 -2 4 7 5 21 2 20 -3 23 -7 12 -14 -10 -8 -11 -9 0 -6 8
2 13 7 12 12 -2 11 41 32 114 57 170 57 302 83 531 104 l150 14 -135 -4 c-74
-2 -130 -2 -125 1 15 6 218 22 233 18 8 -2 38 -4 68 -4z m-358 -27 c-10 -2
-26 -2 -35 0 -10 3 -2 5 17 5 19 0 27 -2 18 -5z m-150 -15 c-4 -16 -26 -27
-53 -27 l-20 0 20 9 c13 6 15 9 5 9 -13 1 -13 2 0 11 21 14 50 12 48 -2z m67
2 c-11 -5 -27 -9 -35 -9 -13 -1 -13 0 0 9 8 5 24 9 35 9 l20 0 -20 -9z m-207
-39 c11 -6 10 -10 -4 -15 -9 -3 -19 -4 -22 -1 -3 3 1 5 9 5 11 0 11 2 -1 10
-8 5 -10 10 -5 10 6 0 16 -4 23 -9z m-52 -18 c-2 -10 -10 -19 -20 -21 -18 -4
-18 18 -1 30 16 12 23 9 21 -9z m-56 -7 c0 -2 -7 -7 -16 -10 -8 -3 -12 -2 -9
4 6 10 25 14 25 6z m-32 -25 c11 -6 10 -10 -4 -15 -9 -3 -19 -4 -22 -1 -3 3 1
5 9 6 8 0 6 4 -6 9 -13 6 -15 9 -5 9 8 0 21 -3 28 -8z m-52 -18 c-2 -9 -9 -19
-17 -21 -11 -3 -11 -1 1 7 11 8 12 11 2 11 -7 0 -10 5 -7 10 10 16 23 12 21
-7z m-116 -37 c0 -2 -7 -7 -16 -10 -8 -3 -12 -2 -9 4 6 10 25 14 25 6z m510
-56 c-41 -4 -106 -7 -145 -7 -63 0 -66 1 -25 7 25 4 90 7 145 7 l100 0 -75 -7z
m520 0 c0 -5 7 -10 15 -10 8 0 15 -7 15 -16 0 -12 -6 -15 -25 -10 -14 3 -36 9
-50 12 -22 6 -25 3 -25 -20 0 -14 -5 -26 -11 -26 -7 0 -9 10 -5 25 6 24 5 25
-39 18 -41 -5 -45 -4 -45 16 0 20 5 21 85 21 50 0 85 -4 85 -10z m108 -7 c-10
-2 -26 -2 -35 0 -10 3 -2 5 17 5 19 0 27 -2 18 -5z m-645 -20 c-7 -2 -19 -2
-25 0 -7 3 -2 5 12 5 14 0 19 -2 13 -5z m-58 -12 c46 -6 43 -7 -53 -15 -57 -4
-106 -5 -109 -2 -4 3 9 7 28 7 l34 2 -40 7 c-35 6 -33 7 25 8 36 0 88 -3 115
-7z m-235 -11 l-25 -7 30 -5 c26 -4 25 -5 -10 -6 -22 -1 -51 1 -65 5 l-25 7
25 7 c14 4 41 7 60 7 31 0 32 -1 10 -8z m338 -17 c-16 -2 -40 -2 -55 0 -16 2
-3 4 27 4 30 0 43 -2 28 -4z m105 0 l-63 -4 -1 -42 c-1 -23 -5 -55 -9 -72 l-8
-30 -2 35 c-2 33 -3 33 -10 10 l-8 -25 -1 26 c-2 45 11 92 20 77 6 -9 9 -7 9
10 0 21 4 22 68 20 l67 -2 -62 -3z m96 -118 c1 -36 -2 -46 -9 -35 -8 13 -10
12 -10 -2 0 -13 8 -18 25 -18 20 0 25 5 26 28 1 15 3 20 6 11 2 -10 13 -19 24
-22 30 -8 133 4 141 17 5 7 8 5 8 -6 0 -9 -6 -19 -12 -21 -7 -3 1 -6 18 -6 20
-1 34 5 38 14 4 11 22 15 76 15 68 0 70 1 70 25 0 25 -1 25 -87 25 -61 0 -83
3 -73 10 12 8 11 10 -6 10 -11 0 -29 7 -40 15 -11 8 -41 14 -71 15 -46 0 -53
3 -53 20 0 11 5 20 10 20 6 0 9 -6 8 -12 -2 -9 11 -12 46 -10 37 2 52 -2 62
-15 10 -15 31 -19 107 -21 l94 -4 12 -40 c7 -22 10 -42 7 -45 -3 -3 -37 -8
-76 -11 -50 -3 -70 -9 -70 -18 0 -11 -30 -14 -150 -14 l-150 0 0 -35 0 -35
118 -2 117 -2 -117 -3 -118 -4 0 -85 c0 -75 3 -87 23 -107 12 -12 16 -16 8
-10 -12 10 -19 9 -35 -5 -20 -16 -20 -16 -7 1 8 9 11 20 9 23 -6 5 -48 -49
-48 -61 0 -4 8 -1 18 6 9 7 6 1 -7 -13 -13 -15 -27 -25 -32 -23 -18 12 -18
-15 0 -27 11 -8 31 -34 45 -59 14 -24 26 -38 26 -31 0 7 5 10 10 7 15 -10 12
-23 -5 -21 -9 1 -24 16 -35 33 -45 75 -71 89 -91 51 -12 -22 -54 -71 -101
-119 -25 -25 -30 -27 -59 -16 -21 8 -26 13 -15 15 10 2 23 -1 30 -7 14 -12 30
3 124 122 20 23 3 37 -83 70 -91 35 -166 36 -269 2 -80 -26 -130 -54 -182
-101 -35 -32 -134 -185 -134 -208 0 -8 12 -16 28 -19 22 -3 20 -4 -10 -6 -50
-1 -49 9 11 114 61 106 160 199 231 219 14 4 34 11 45 15 123 49 236 39 368
-35 27 -15 30 -15 42 2 7 11 23 30 35 44 45 51 51 74 48 193 l-3 112 -67 3
-67 3 -5 -43 c-13 -95 -14 -100 -12 -30 3 69 2 73 -16 69 -16 -5 -17 -3 -7 9
10 12 32 15 101 12 l88 -3 0 86 c0 47 3 89 8 93 9 10 21 -54 21 -119z m264
118 c-7 -2 -19 -2 -25 0 -7 3 -2 5 12 5 14 0 19 -2 13 -5z m-603 -9 c-8 -1
-45 -6 -81 -9 -55 -5 -68 -10 -77 -28 -6 -12 -11 -16 -11 -9 -1 7 -5 10 -11 7
-5 -3 -7 0 -4 9 4 9 -2 16 -18 19 -21 4 -20 4 5 6 19 1 27 -4 28 -16 0 -14 3
-13 11 5 10 20 17 22 92 21 45 -1 74 -3 66 -5z m121 -31 c-8 -15 -10 -15 -11
-2 0 17 10 32 18 25 2 -3 -1 -13 -7 -23z m-381 7 c-14 -4 -38 -8 -55 -8 -29 0
-29 0 -5 8 14 4 39 8 55 8 29 0 29 0 5 -8z m1583 -6 c-2 -6 -21 -10 -41 -10
-20 1 -73 4 -117 6 l-80 4 75 5 c116 9 168 8 163 -5z m-707 -12 c-16 -2 -32 0
-37 5 -5 5 7 7 29 4 34 -5 35 -6 8 -9z m-1012 -7 c-4 -8 -11 -15 -16 -15 -6 0
-5 6 2 15 7 8 14 15 16 15 2 0 1 -7 -2 -15z m1156 0 c0 -8 -2 -15 -4 -15 -2 0
-6 7 -10 15 -3 8 -1 15 4 15 6 0 10 -7 10 -15z m596 -24 c-4 -6 -24 -12 -44
-13 l-37 -1 34 -4 c35 -5 69 -29 56 -41 -3 -4 -11 1 -17 11 -7 14 -17 17 -37
12 -29 -6 -58 15 -47 34 3 5 0 12 -6 14 -7 3 4 6 24 6 20 1 40 6 44 12 4 7 11
6 21 -4 9 -8 12 -20 9 -26z m-1956 -3 c-13 -13 -19 -16 -15 -8 14 25 28 41 32
36 3 -3 -5 -15 -17 -28z m1398 15 c6 -2 12 2 12 7 0 6 14 10 30 10 20 0 30 -5
30 -15 0 -13 -22 -19 -67 -18 -7 1 -13 -3 -13 -9 0 -5 21 -8 48 -6 41 3 47 6
46 25 -1 24 15 26 32 4 7 -9 24 -12 47 -9 30 3 37 1 37 -13 0 -15 -5 -16 -32
-9 -38 11 -78 9 -78 -2 0 -13 -95 -9 -108 4 -9 9 -12 8 -12 -7 0 -10 -3 -16
-6 -12 -3 3 -3 20 1 38 4 17 10 28 14 23 3 -5 12 -10 19 -11z m-1352 -31 c-17
-16 -18 -16 -5 5 7 12 15 20 18 17 3 -2 -3 -12 -13 -22z m376 6 c-7 -7 -12 -8
-12 -2 0 14 12 26 19 19 2 -3 -1 -11 -7 -17z m285 0 c-3 -8 -6 -5 -6 6 -1 11
2 17 5 13 3 -3 4 -12 1 -19z m432 -5 c0 -25 -1 -26 -9 -8 -12 27 -12 35 0 35
6 0 10 -12 9 -27z m-965 -7 c-3 -9 -10 -16 -15 -16 -5 0 -4 9 3 20 14 22 21
20 12 -4z m218 2 c-7 -7 -12 -8 -12 -2 0 14 12 26 19 19 2 -3 -1 -11 -7 -17z
m-472 -7 c0 -5 -7 -12 -16 -15 -14 -5 -15 -4 -4 9 14 17 20 19 20 6z m1690
-21 c12 -8 8 -10 -15 -11 l-30 -1 29 -7 c32 -7 48 -31 20 -31 -9 0 -22 -7 -29
-16 -9 -13 -19 -15 -41 -9 -16 4 -23 10 -16 12 6 3 10 9 6 14 -3 5 -1 9 5 9 5
0 12 -5 14 -10 3 -6 4 -5 3 2 -1 8 -21 14 -46 16 -42 3 -44 3 -28 -15 16 -17
14 -18 -48 -15 -64 4 -64 4 -64 33 0 18 4 28 10 24 6 -3 10 -1 10 4 0 14 199
15 220 1z m-1460 -10 c0 -5 -5 -10 -11 -10 -5 0 -7 5 -4 10 3 6 8 10 11 10 2
0 4 -4 4 -10z m-290 -14 c0 -2 -24 -23 -52 -46 l-53 -42 50 46 c50 46 55 49
55 42z m68 -16 c-7 -11 -16 -20 -20 -20 -5 0 -3 9 4 20 7 11 16 20 20 20 5 0
3 -9 -4 -20z m422 -9 c-9 -18 -19 -21 -73 -19 l-62 2 58 3 c43 3 60 9 69 23
16 25 23 18 8 -9z m1270 -21 c0 -5 -4 -10 -10 -10 -5 0 -10 5 -10 10 0 6 5 10
10 10 6 0 10 -4 10 -10z m-1734 -29 c-4 -5 0 -12 6 -14 7 -3 3 -6 -9 -6 -16
-1 -21 3 -17 14 4 8 10 15 16 15 5 0 7 -4 4 -9z m837 -133 c8 -5 6 -8 -5 -8
-16 0 -18 10 -16 78 l2 77 3 -70 c2 -39 9 -73 16 -77z m-558 82 c-3 -5 -39 -9
-78 -9 -62 2 -66 3 -32 9 63 11 117 11 110 0z m989 -52 c3 -29 6 -68 6 -85 0
-18 3 -33 8 -33 4 0 7 33 6 72 -1 65 0 66 3 13 2 -33 8 -64 12 -68 5 -5 34 -6
64 -2 50 6 56 10 60 34 3 21 4 19 6 -10 1 -43 -13 -59 -57 -59 l-33 0 5 -42
c16 -131 29 -279 24 -284 -3 -3 -9 28 -12 68 -12 124 -19 143 -26 65 -7 -76
-23 -103 -44 -74 -16 21 -18 227 -3 227 6 0 19 -7 29 -17 17 -15 18 -14 18 19
0 40 -11 48 -67 48 l-35 0 6 -72 c10 -124 15 -392 6 -313 -4 39 -8 113 -9 166
0 53 -4 124 -7 158 l-7 61 -67 0 -68 0 -7 81 c-4 44 -5 82 -2 85 3 3 8 -31 12
-75 l7 -81 84 0 84 0 0 28 c0 15 -3 50 -6 79 l-7 52 -51 4 -51 3 56 2 56 2 7
-52z m-1171 35 c-7 -2 -21 -2 -30 0 -10 3 -4 5 12 5 17 0 24 -2 18 -5z m1497
-63 c25 -97 34 -110 78 -110 20 0 61 -3 90 -6 42 -6 52 -10 52 -25 0 -11 6
-19 14 -19 9 0 12 8 8 27 l-5 26 215 -7 c187 -6 217 -5 231 8 13 14 16 14 21
1 3 -9 20 -15 43 -16 21 0 33 -3 26 -5 -7 -3 -9 -12 -6 -20 3 -8 -1 -14 -10
-14 -8 0 -30 -3 -48 -6 -23 -4 -30 -3 -21 4 10 6 -5 9 -45 9 -52 0 -54 -1 -25
-9 17 -5 32 -11 32 -13 0 -3 -36 -5 -80 -5 -44 0 -80 3 -80 8 0 4 17 6 39 4
21 -2 41 0 44 5 3 4 -8 9 -23 9 -50 2 -100 15 -100 24 0 6 -18 10 -40 10 -22
0 -40 -4 -40 -8 0 -4 16 -6 35 -4 19 2 35 3 35 1 0 -2 4 -20 10 -38 5 -19 6
-30 1 -25 -5 5 -11 18 -13 29 -2 12 -13 21 -26 23 -19 3 -22 -1 -22 -35 0 -28
-3 -34 -10 -23 -8 13 -10 13 -10 -2 0 -13 -11 -18 -47 -21 -36 -3 -32 -4 15
-3 34 1 62 -2 62 -6 0 -5 -33 -9 -72 -10 -71 -1 -72 -1 -23 -8 30 -4 -34 -7
-157 -8 l-208 -2 -7 -27 -7 -28 -6 25 c-4 14 -2 31 3 38 7 9 0 12 -31 12 l-41
0 -6 55 c-4 31 -6 57 -4 58 2 1 27 0 54 -4 l50 -6 -48 -1 -48 -2 7 -37 c7 -42
15 -54 21 -35 3 8 28 12 74 12 41 0 68 4 64 9 -3 5 -21 7 -40 4 -23 -4 -35 -2
-35 6 0 15 73 14 88 -1 9 -9 12 -9 12 -1 0 7 -4 15 -10 18 -5 3 -10 16 -10 28
0 18 -2 19 -10 7 -5 -8 -10 -10 -10 -3 0 6 -9 9 -20 6 -14 -4 -20 0 -20 10 0
22 18 31 35 17 12 -10 15 -9 15 8 0 11 -7 23 -16 26 -27 10 -64 7 -65 -6 -1
-21 -18 25 -17 47 0 17 1 17 5 3 3 -13 15 -18 39 -18 38 0 42 11 22 67 -12 32
-13 33 -71 33 l-59 0 5 -62 c4 -42 3 -53 -2 -33 -5 17 -9 47 -10 68 l-1 38 71
-3 72 -3 17 -65z m-1595 50 c-11 -5 -38 -8 -60 -8 -34 0 -36 1 -15 8 14 4 41
8 60 8 28 1 31 -1 15 -8z m1968 3 c-7 -2 -21 -2 -30 0 -10 3 -4 5 12 5 17 0
24 -2 18 -5z m74 -9 c-3 -3 -12 -4 -19 -1 -8 3 -5 6 6 6 11 1 17 -2 13 -5z
m-2184 -11 c-7 -2 -19 -2 -25 0 -7 3 -2 5 12 5 14 0 19 -2 13 -5z m-43 -13 c0
-5 -10 -18 -22 -29 l-21 -20 54 4 54 4 -57 -12 c-72 -15 -126 -68 -80 -80 9
-3 2 -5 -16 -6 -24 -1 -31 2 -26 12 24 41 102 137 111 137 2 0 3 -4 3 -10z
m1690 -5 c0 -8 -2 -15 -4 -15 -2 0 -6 7 -10 15 -3 8 -1 15 4 15 6 0 10 -7 10
-15z m-552 -29 c46 -24 49 -40 16 -84 -46 -60 -47 -61 -61 -43 -10 14 -11 12
-7 -9 3 -14 2 -20 -3 -14 -4 6 -19 17 -31 23 -13 7 -21 15 -18 18 3 3 12 1 19
-5 11 -9 18 -5 35 18 17 22 19 31 9 37 -15 10 -19 55 -3 50 6 -2 10 -14 10
-26 -1 -12 3 -20 8 -19 5 2 9 7 8 12 -1 5 4 12 10 16 19 12 -27 33 -56 26 -21
-6 -23 -9 -13 -28 10 -19 9 -20 -12 -15 -13 4 -31 7 -39 7 -11 0 -12 2 -3 8 7
5 -29 7 -80 6 -99 -3 -88 1 36 11 65 6 77 9 77 25 0 15 5 17 33 11 17 -5 47
-16 65 -25z m-181 2 c-3 -8 -6 -5 -6 6 -1 11 2 17 5 13 3 -3 4 -12 1 -19z
m-767 -4 c0 -2 -26 -3 -57 -2 l-58 1 45 6 c42 6 70 4 70 -5z m1808 -23 c3 -19
0 -22 -13 -17 -9 3 -46 6 -81 6 -36 0 -64 4 -64 10 0 6 11 10 25 10 14 0 25 5
25 11 0 7 20 9 53 7 46 -3 52 -6 55 -27z m-1612 -28 c-18 -33 -21 -17 -5 24 6
15 13 23 16 16 2 -6 -3 -24 -11 -40z m1822 31 c15 -15 14 -16 -7 -9 -18 5 -22
4 -16 -5 5 -9 4 -11 -3 -6 -15 9 -16 36 -1 36 6 0 18 -7 27 -16z m285 -1 c-13
-2 -33 -2 -45 0 -13 2 -3 4 22 4 25 0 35 -2 23 -4z m-1698 -13 c-16 -4 -39 -8
-50 -8 l-20 -1 20 9 c11 5 34 8 50 8 l30 0 -30 -8z m1678 1 c64 -1 88 -4 85
-13 -2 -6 -11 -13 -19 -16 -11 -3 -11 -2 1 7 11 8 -30 11 -147 11 -90 0 -163
3 -163 8 0 4 35 6 78 5 42 0 117 -2 165 -2z m-1756 -17 c-3 -3 -12 -4 -19 -1
-8 3 -5 6 6 6 11 1 17 -2 13 -5z m1330 0 c-3 -3 -12 -4 -19 -1 -8 3 -5 6 6 6
11 1 17 -2 13 -5z m-1902 -14 c3 -5 16 -11 28 -11 36 -3 -74 -17 -123 -17
l-45 0 49 9 c27 4 54 13 59 18 14 14 24 14 32 1z m496 -11 c-24 -11 -46 -17
-49 -15 -6 6 58 34 78 34 8 1 -5 -8 -29 -19z m1429 12 c0 -5 -13 -11 -30 -13
-16 -3 -30 -1 -30 3 0 4 12 10 28 12 15 2 28 5 30 6 1 0 2 -3 2 -8z m-423 -33
c-3 -7 -5 -2 -5 12 0 14 2 19 5 13 2 -7 2 -19 0 -25z m-1334 15 c-7 -2 -19 -2
-25 0 -7 3 -2 5 12 5 14 0 19 -2 13 -5z m641 -2 c10 -4 -29 -7 -88 -6 -58 0
-98 3 -88 7 23 9 152 9 176 -1z m1434 2 c-21 -2 -57 -2 -80 0 -24 2 -7 4 37 4
44 0 63 -2 43 -4z m238 -10 c-7 -7 -77 -5 -85 2 -2 3 17 5 44 5 27 0 45 -3 41
-7z m-1883 -10 c-7 -2 -19 -2 -25 0 -7 3 -2 5 12 5 14 0 19 -2 13 -5z m270 0
c-7 -2 -19 -2 -25 0 -7 3 -2 5 12 5 14 0 19 -2 13 -5z m272 -2 c3 -5 1 -12 -5
-16 -5 -3 -10 1 -10 9 0 18 6 21 15 7z m-725 -5 c0 -2 -12 -12 -27 -21 l-28
-18 19 21 c17 20 36 29 36 18z m139 0 c-2 -2 -22 -11 -44 -20 l-40 -16 25 20
c14 11 34 20 44 20 11 0 17 -2 15 -4z m1933 -35 c8 12 9 12 6 0 -9 -31 -28
-23 -27 11 2 32 2 32 6 4 4 -23 7 -26 15 -15z m-1248 14 c8 -21 -3 -45 -21
-45 -9 0 -13 -6 -10 -14 3 -8 -1 -17 -10 -20 -11 -4 -14 -2 -9 9 3 8 3 15 0
15 -2 0 -9 -10 -13 -22 -8 -21 -9 -19 -9 9 1 19 5 30 11 26 6 -3 7 -1 3 6 -4
6 -11 9 -16 6 -4 -3 -13 2 -19 9 -13 15 1 32 18 21 5 -3 12 -1 16 5 10 15 52
12 59 -5z m-109 -25 l20 -25 -21 18 c-44 37 -47 6 -5 -41 31 -33 30 -34 -16
-59 -17 -9 -21 -8 -17 2 3 7 -5 15 -20 19 -37 9 -52 42 -30 67 9 10 23 19 29
19 7 0 18 7 25 15 7 9 13 14 14 13 1 -2 10 -14 21 -28z m-1275 0 c13 -8 13
-10 -2 -10 -10 0 -29 -20 -44 -45 -14 -25 -28 -45 -31 -45 -3 0 7 20 20 45 29
50 26 52 -46 36 -28 -7 -37 -6 -34 2 2 7 21 15 43 18 61 10 78 9 94 -1z m333
3 c-41 -8 -24 -18 25 -15 26 2 42 -1 37 -5 -6 -4 -26 -28 -45 -53 -18 -25 -38
-49 -44 -55 -17 -17 26 49 47 73 l20 22 -35 0 c-30 0 -36 -4 -45 -32 -6 -18
-25 -71 -42 -118 -17 -47 -31 -94 -31 -105 0 -11 -7 -38 -14 -60 l-14 -40
-174 -3 c-148 -2 -175 -5 -185 -19 -12 -15 -13 -14 -13 8 0 25 20 66 20 42 0
-9 18 -13 59 -13 l58 0 17 68 c31 121 81 272 90 272 11 0 4 -28 -32 -130 -16
-47 -36 -113 -44 -147 l-15 -63 107 0 107 0 7 43 c8 50 18 84 61 200 l33 87
-94 0 c-56 0 -94 4 -94 10 0 6 38 10 94 10 149 0 127 19 -26 23 -132 3 -132 3
27 3 88 1 150 -1 138 -3z m156 -23 l34 -30 34 30 c18 17 38 30 44 30 6 0 -17
-21 -52 -47 -68 -52 -151 -167 -170 -238 -18 -66 -22 -72 -27 -41 -2 16 1 33
7 39 6 6 11 17 11 25 0 18 84 154 110 177 20 18 20 18 -1 38 -11 10 -22 17
-23 16 -2 -2 -27 -42 -56 -89 -84 -134 -101 -185 -107 -324 -6 -117 -6 -118
15 -107 11 6 27 11 34 10 23 -1 -46 -28 -74 -29 -20 0 -28 5 -27 18 0 10 3 12
6 5 13 -33 21 -4 25 90 3 78 11 120 32 181 24 67 84 178 105 196 17 13 41 62
36 70 -12 20 11 9 44 -20z m2273 -2 c10 -12 14 -26 10 -36 -6 -14 -7 -13 -10
6 -4 24 -21 29 -41 10 -9 -10 -64 -13 -204 -13 -191 0 -192 0 -195 -22 -3 -21
-8 -23 -73 -23 -62 0 -69 -2 -69 -20 0 -18 7 -20 60 -20 36 0 60 -4 60 -11 0
-6 6 -9 13 -6 6 2 11 13 9 24 -1 11 2 32 7 46 9 23 16 27 48 25 l38 -1 -37 -4
c-21 -2 -38 -10 -38 -16 0 -9 30 -11 110 -9 61 2 108 6 106 10 -2 4 39 5 92 3
54 -2 89 -6 79 -8 -11 -3 -16 -11 -13 -19 4 -11 -6 -14 -44 -14 -33 0 -50 -4
-51 -12 0 -9 -2 -9 -5 -2 -3 6 -16 9 -32 6 l-27 -6 24 -6 c14 -3 26 -11 29
-18 2 -8 -35 -12 -145 -15 l-148 -3 183 -2 c174 -2 221 -11 155 -29 -27 -7
-26 -8 12 -13 32 -4 41 -10 43 -27 3 -21 9 -23 63 -23 52 0 60 -2 57 -17 -2
-12 -13 -18 -33 -19 -28 -1 -29 -1 -2 3 15 2 27 9 27 15 0 8 -51 9 -167 6 -93
-3 -139 -2 -103 2 57 6 49 7 -58 8 -94 2 -123 5 -120 15 3 6 27 15 54 18 l49
6 -50 3 c-27 1 -53 2 -57 1 -4 0 -5 6 -2 14 5 11 32 15 122 18 104 2 101 3
-33 3 -82 1 -140 -1 -127 -3 40 -8 23 -18 -30 -18 -29 0 -56 5 -60 10 -4 6 -8
2 -8 -8 0 -15 5 -17 30 -12 17 4 43 4 60 0 26 -6 28 -9 17 -25 -10 -17 -13
-17 -20 -5 -5 9 -23 15 -48 15 -32 0 -42 4 -46 20 -6 23 -19 26 -26 8 -2 -7
-8 -2 -11 12 -7 25 -10 26 -67 22 -37 -3 -59 0 -59 6 0 6 12 13 28 15 26 4 26
4 -5 6 -17 0 -34 -5 -36 -11 -3 -8 -6 -6 -6 5 -1 14 8 17 63 17 59 0 65 2 68
23 2 16 11 23 31 25 22 3 27 8 27 30 l1 27 14 -30 c14 -30 14 -30 9 -2 l-6 27
208 2 c115 1 221 2 236 2 34 1 25 16 -10 16 -20 0 -23 3 -13 9 11 7 10 10 -5
15 -10 3 3 3 31 0 32 -4 55 -13 67 -26z m-2338 -2 c-3 -8 -11 -17 -18 -19 -13
-5 -97 -127 -109 -157 -5 -13 -5 -13 -6 0 0 8 8 26 19 40 11 14 20 29 20 34 0
9 88 116 95 116 3 0 2 -6 -1 -14z m-584 -36 c-6 -11 -13 -20 -16 -20 -2 0 0 9
6 20 6 11 13 20 16 20 2 0 0 -9 -6 -20z m1540 -32 c0 -12 -34 -2 -38 12 -3 7
0 10 7 6 6 -4 11 -1 11 6 0 9 3 9 10 -2 5 -8 10 -18 10 -22z m-601 -16 c0 -24
-1 -25 -9 -7 -12 28 -12 47 0 40 6 -3 10 -18 9 -33z m1734 31 c-13 -2 -35 -2
-50 0 -16 2 -5 4 22 4 28 0 40 -2 28 -4z m-2432 -40 c-10 -17 -10 -16 -11 3 0
23 13 41 18 25 2 -6 -1 -18 -7 -28z m1556 -3 c3 0 3 10 0 21 -3 12 -2 18 3 13
4 -5 11 -38 14 -74 6 -62 5 -63 -7 -26 -11 34 -14 37 -25 23 -16 -19 -8 -70
15 -92 13 -13 11 -15 -16 -15 -34 0 -48 15 -31 35 9 11 7 18 -10 35 -14 14
-19 28 -15 38 4 9 12 32 17 51 l10 33 19 -21 c11 -12 22 -21 26 -21z m53 -14
c0 -39 -6 -31 -14 19 -5 29 -4 36 3 25 6 -8 11 -28 11 -44z m-1939 17 c-8 -15
-10 -15 -11 -2 0 17 10 32 18 25 2 -3 -1 -13 -7 -23z m59 7 c-9 -17 -8 -20 10
-20 24 0 24 1 5 -41 l-16 -34 6 33 c5 25 3 32 -9 32 -9 0 -16 -6 -16 -12 0 -7
-8 -22 -16 -33 -16 -20 -16 -19 -9 4 8 26 44 91 51 91 3 0 0 -9 -6 -20z m1324
8 c-4 -6 -23 -25 -43 -42 -19 -17 -39 -37 -45 -44 -6 -7 -19 -21 -28 -30 -10
-9 -18 -24 -18 -34 0 -15 4 -16 31 -6 17 6 52 22 77 35 25 13 59 32 76 41 39
20 58 24 53 9 -3 -7 -10 -11 -16 -9 -7 1 -24 -6 -39 -16 -15 -11 -58 -34 -95
-51 -53 -26 -67 -36 -62 -49 3 -10 -5 -4 -18 13 -22 27 -26 28 -43 15 -23 -18
65 79 124 138 44 42 60 53 46 30z m1016 -5 c0 -5 -54 -6 -121 -4 l-120 3 5
-38 c5 -29 4 -34 -3 -19 -9 19 -10 19 -10 -2 -1 -22 -5 -23 -68 -21 l-68 2 63
3 62 4 1 32 c1 18 1 35 0 40 0 4 58 7 129 7 72 0 130 -3 130 -7z m-2240 -48
c-6 -15 -13 -25 -16 -22 -4 3 0 20 7 37 17 37 24 25 9 -15z m1464 19 c4 -15 5
-29 1 -32 -3 -3 -5 2 -5 11 0 25 -14 28 -56 13 -36 -12 -39 -15 -36 -47 2 -19
6 -38 9 -43 9 -13 23 17 17 37 -9 27 20 20 42 -10 31 -43 35 -62 19 -93 -20
-39 -19 -48 8 -53 12 -2 -5 -6 -38 -7 l-60 -3 55 -7 55 -7 -55 -1 c-46 -2 -57
1 -68 18 -7 12 -10 26 -6 32 5 7 2 8 -6 3 -10 -6 -12 2 -7 43 4 35 2 52 -6 55
-7 2 -8 8 -4 13 14 15 27 -20 22 -61 -4 -30 -3 -35 4 -20 8 17 10 14 10 -17 1
-35 3 -38 31 -38 28 0 30 2 20 20 -13 23 -22 27 -14 5 4 -8 1 -15 -5 -15 -6 0
-12 10 -15 23 -18 101 -25 134 -30 147 -4 11 8 21 47 36 68 28 64 28 71 -2z
m-1511 -37 c-16 -31 -23 -54 -44 -144 -10 -40 -13 -43 -42 -42 -29 2 -30 2 -6
6 27 4 39 25 39 70 0 33 50 154 61 147 5 -3 1 -20 -8 -37z m-137 -4 c-18 -33
-21 -26 -6 13 6 15 13 24 16 21 3 -3 -1 -18 -10 -34z m340 11 c-4 -9 -9 -15
-11 -12 -3 3 -3 13 1 22 4 9 9 15 11 12 3 -3 3 -13 -1 -22z m1669 -99 c-4 -42
-3 -56 5 -45 9 13 10 13 10 0 0 -31 -13 -90 -20 -90 -3 0 -5 15 -4 33 3 29 3
30 -5 7 l-9 -25 -1 27 c-1 15 4 50 10 77 6 28 9 59 6 68 -2 10 -8 -2 -13 -27
-8 -44 -8 -44 -15 -15 -4 17 -7 44 -7 60 l0 30 7 -30 c7 -29 7 -29 15 15 l9
45 8 -35 c5 -19 7 -62 4 -95z m-937 50 l1 -20 -9 20 c-5 11 -8 31 -8 45 l0 25
8 -25 c4 -14 8 -34 8 -45z m611 20 l0 -20 -9 20 c-7 17 -9 16 -9 -9 -1 -16 -4
-27 -7 -23 -4 3 -3 23 1 43 5 28 9 34 16 23 5 -8 8 -23 8 -34z m-546 18 c-28
-4 -33 -9 -34 -31 -1 -18 -3 -21 -6 -9 -8 32 4 47 39 45 l33 -1 -32 -4z m-95
-15 c7 -7 12 -17 12 -22 0 -11 -80 -66 -94 -66 -10 0 14 23 47 44 30 20 38 50
10 39 -11 -4 -14 -3 -9 5 9 15 19 15 34 0z m-886 -31 c-6 -12 -13 -29 -15 -37
-4 -12 -6 -12 -6 2 -1 24 18 72 26 64 3 -3 1 -16 -5 -29z m2261 26 c-18 -2
-48 -2 -65 0 -18 2 -4 4 32 4 36 0 50 -2 33 -4z m-2103 -48 c-7 -20 -14 -34
-17 -31 -3 2 1 20 8 40 17 46 25 38 9 -9z m545 35 c3 -5 1 -10 -4 -10 -6 0
-11 5 -11 10 0 6 2 10 4 10 3 0 8 -4 11 -10z m131 1 c-3 -5 -16 -11 -28 -14
-22 -6 -22 -5 -4 8 22 17 40 20 32 6z m1061 -68 c-2 -16 -4 -3 -4 27 0 30 2
43 4 28 2 -16 2 -40 0 -55z m143 57 c2 31 7 18 15 -42 3 -27 10 -48 16 -48 5
0 8 6 7 13 -2 8 15 13 56 15 50 3 58 1 48 -11 -7 -8 -9 -17 -5 -20 3 -4 -1 -7
-10 -7 -9 0 -17 5 -17 10 0 6 -14 10 -31 10 -17 0 -28 -4 -24 -10 4 -6 -20
-10 -64 -10 -41 0 -71 -4 -71 -10 0 -5 11 -10 25 -10 22 0 25 -4 24 -32 -2
-31 -2 -31 -6 -5 -4 28 -25 34 -92 28 -21 -2 -23 0 -12 12 9 12 9 16 -1 20 -7
3 25 6 72 6 47 1 79 5 73 9 -7 5 -15 30 -18 58 -3 36 -2 42 4 24 l9 -25 2 25z
m-2225 -35 c-9 -20 -18 -35 -21 -33 -2 3 3 22 11 43 9 20 18 35 21 33 2 -3 -3
-22 -11 -43z m110 28 c-4 -10 -16 -40 -27 -68 -12 -33 -17 -40 -14 -20 6 35
34 105 42 105 3 0 3 -8 -1 -17z m765 -39 c0 -10 -12 -14 -40 -14 -35 0 -40 3
-40 23 0 39 19 49 52 26 15 -11 28 -27 28 -35z m-817 31 c-3 -9 -8 -14 -10
-11 -3 3 -2 9 2 15 9 16 15 13 8 -4z m530 0 c-3 -9 -8 -14 -10 -11 -3 3 -2 9
2 15 9 16 15 13 8 -4z m367 -5 c6 8 10 12 10 8 0 -4 -16 -28 -35 -54 -19 -25
-35 -50 -35 -55 0 -5 -7 -9 -16 -9 -13 0 -15 -9 -12 -50 1 -28 0 -50 -4 -50
-5 0 -8 22 -8 50 0 53 3 50 -70 64 -14 3 2 3 35 2 60 -3 60 -3 88 36 28 39 28
41 10 62 l-18 21 23 -20 c20 -16 25 -17 32 -5z m1218 -4 c6 -29 -15 -43 -35
-24 -14 14 -14 20 -3 33 16 19 34 15 38 -9z m295 17 c-13 -2 -35 -2 -50 0 -16
2 -5 4 22 4 28 0 40 -2 28 -4z m-497 -69 c-4 -14 -11 -22 -17 -18 -8 4 -7 9 2
15 10 6 5 9 -16 9 -23 0 -27 -3 -15 -10 8 -5 10 -10 4 -10 -6 0 -14 3 -17 7
-4 3 -18 7 -32 8 -31 1 -33 -22 -2 -28 19 -4 18 -4 -5 -6 -24 -1 -28 3 -28 24
0 24 3 25 60 25 58 0 60 1 61 28 2 25 2 25 6 3 3 -12 2 -34 -1 -47z m449 52
c11 -2 -10 -4 -47 -5 -38 0 -68 2 -68 7 0 7 67 6 115 -2z m-1252 -66 c99 -44
115 -102 47 -170 -35 -35 -46 -40 -86 -40 -25 0 -54 5 -65 10 -18 10 -24 4
-20 -22 0 -4 -5 -5 -13 -2 -15 6 -30 -22 -19 -38 3 -6 1 -8 -4 -5 -9 6 -87
-74 -143 -146 -14 -17 -28 -26 -39 -23 -9 3 -23 1 -31 -4 -12 -8 -12 -10 5
-10 11 0 31 -9 45 -20 30 -23 10 -27 -24 -4 -15 9 -26 11 -30 5 -4 -6 -13 -8
-21 -4 -8 3 -15 1 -15 -5 0 -6 4 -12 9 -14 5 -1 -3 -12 -17 -22 l-27 -20 19
22 c11 12 14 22 8 22 -6 0 -14 -4 -17 -10 -11 -18 -25 -11 -65 31 -53 53 -75
88 -64 99 17 16 86 51 91 46 3 -3 -16 -15 -41 -27 -25 -11 -46 -25 -46 -29 0
-5 25 -35 55 -67 l54 -58 46 45 c28 27 53 44 64 42 11 -2 28 9 40 25 12 15 42
51 66 78 24 28 57 66 74 85 34 38 38 55 17 63 -21 8 -29 71 -13 109 10 24 27
39 56 52 32 15 41 24 42 45 0 26 0 26 9 3 6 -13 29 -31 53 -42z m1447 45 c0
-12 17 -15 83 -17 70 -1 76 -2 37 -8 -31 -5 6 -8 115 -11 l160 -3 -135 -6
-135 -6 190 -4 c105 -2 171 -5 148 -7 -38 -4 -43 -7 -43 -29 0 -15 -6 -24 -15
-24 -8 0 -15 -6 -15 -14 0 -9 -13 -16 -32 -19 -20 -2 -8 -5 32 -7 l65 -3 -60
-7 -60 -7 58 -1 c39 -1 56 -6 52 -13 -5 -7 18 -10 74 -7 72 3 81 1 81 -14 0
-14 -9 -18 -37 -19 l-38 -2 40 -7 c30 -5 14 -8 -65 -10 l-105 -3 75 -9 c41 -5
100 -7 132 -6 31 2 54 0 51 -4 -2 -5 -39 -9 -81 -10 l-77 -1 65 -6 65 -6 -64
-7 c-35 -3 -86 -5 -115 -3 -28 1 -36 1 -18 -2 19 -3 30 -8 26 -15 -5 -7 20 -9
80 -6 67 3 86 1 86 -9 0 -9 14 -13 40 -13 22 0 40 -4 40 -10 0 -5 -21 -10 -46
-10 -48 0 -54 -19 -6 -21 27 -1 27 -1 -3 -8 -17 -4 -33 -2 -37 4 -4 5 -8 0 -8
-12 0 -15 -6 -23 -17 -23 -15 0 -16 2 -3 10 27 17 2 22 -114 21 -67 0 -118 5
-122 10 -3 6 3 13 15 16 58 15 -2 33 -91 28 -32 -2 -60 1 -63 6 -4 5 -17 9
-30 9 -22 0 -24 -3 -18 -30 5 -29 4 -30 -28 -29 l-34 1 28 10 c19 7 26 15 23
25 -3 8 -6 19 -6 24 0 5 -18 9 -40 9 l-40 0 2 63 2 62 3 -53 4 -53 117 7 c64
4 119 8 121 10 10 9 -8 13 -66 16 -104 5 -56 16 107 25 l155 8 -170 11 c-93 6
-143 12 -110 13 60 2 156 18 123 20 -10 0 -18 7 -19 14 0 9 -2 9 -6 -1 -7 -18
-249 -15 -283 3 -22 12 -19 13 35 13 146 0 248 6 215 11 -31 5 -29 6 25 12 33
3 -7 4 -90 2 -82 -3 -151 -8 -152 -11 -2 -4 -38 -5 -80 -2 l-78 4 85 8 c47 5
121 11 165 14 100 7 124 24 33 24 -36 0 -87 2 -114 5 -38 3 -42 2 -19 -4 l30
-9 -31 -1 c-38 -1 -53 25 -27 45 17 12 16 13 -4 14 -13 0 -23 -4 -23 -10 0 -5
-4 -10 -9 -10 -5 0 -11 18 -13 40 -2 22 0 40 4 40 5 0 8 -7 8 -15z m-2579 -22
c-8 -15 -10 -15 -11 -2 0 17 10 32 18 25 2 -3 -1 -13 -7 -23z m530 -4 c-5 -13
-10 -19 -10 -12 -1 15 10 45 15 40 3 -2 0 -15 -5 -28z m-406 -19 c-4 -12 -9
-19 -12 -17 -3 3 -2 15 2 27 4 12 9 19 12 17 3 -3 2 -15 -2 -27z m1562 -22
c-2 -13 -4 -5 -4 17 -1 22 1 32 4 23 2 -10 2 -28 0 -40z m863 43 c0 -11 -70
-20 -76 -9 -8 13 -54 9 -51 -4 1 -9 -12 -13 -38 -14 -32 -1 -34 -1 -7 3 19 3
32 10 32 19 0 11 16 14 70 14 39 0 70 -4 70 -9z m-2620 -46 c-6 -15 -13 -25
-17 -21 -3 3 0 17 7 31 17 32 24 26 10 -10z m355 5 c-4 -12 -9 -19 -12 -17 -3
3 -2 15 2 27 4 12 9 19 12 17 3 -3 2 -15 -2 -27z m2185 15 c0 -11 13 -15 48
-16 29 -1 37 -4 22 -7 -23 -4 -21 -6 15 -17 l40 -12 -77 -7 c-42 -5 -81 -5
-87 -2 -6 4 -11 2 -11 -3 0 -6 -11 -11 -25 -11 -18 0 -25 -5 -25 -20 0 -11 7
-20 15 -20 8 0 15 8 15 18 0 13 2 14 9 3 6 -9 34 -14 95 -15 47 0 86 -4 86 -8
0 -7 -97 -11 -272 -12 -58 -1 -104 -4 -101 -8 2 -5 94 -8 204 -8 l199 0 -1
-27 c-1 -17 -3 -21 -6 -10 -4 15 -20 17 -157 17 -84 0 -174 3 -200 6 l-46 7 0
-46 0 -46 48 -4 47 -3 -51 -2 -52 -2 -5 43 c-3 23 -6 72 -7 110 l-1 67 143 1
c79 0 137 3 131 6 -15 6 -17 43 -3 43 6 0 10 -7 10 -15z m-2499 -50 l-21 -48
45 5 c50 6 56 2 44 -27 -6 -17 -8 -17 -8 -2 -1 14 -10 17 -47 17 -33 0 -45 4
-41 13 31 77 40 97 44 93 3 -2 -5 -26 -16 -51z m546 -2 c-3 -10 -5 -2 -5 17 0
19 2 27 5 18 2 -10 2 -26 0 -35z m1430 -15 c-2 -13 -4 -5 -4 17 -1 22 1 32 4
23 2 -10 2 -28 0 -40z m-2044 -3 c-3 -9 -8 -14 -10 -11 -3 3 -2 9 2 15 9 16
15 13 8 -4z m1617 10 c0 -3 -12 -10 -26 -15 -17 -7 -24 -15 -20 -25 3 -8 1
-15 -4 -15 -6 0 -10 10 -10 21 0 19 -4 21 -37 15 -21 -3 -54 -6 -74 -6 -31 0
-37 -4 -52 -39 -33 -75 -127 -149 -127 -100 0 5 3 8 8 8 33 -5 82 40 111 104
l21 46 103 4 c56 1 103 4 105 5 1 1 2 0 2 -3z m-650 -30 c0 -15 6 -25 15 -25
9 0 12 6 9 18 -4 9 3 4 15 -13 11 -16 33 -40 48 -52 15 -13 23 -23 16 -23 -6
0 -15 5 -18 10 -3 6 -11 10 -17 10 -6 0 -5 -7 3 -17 7 -10 1 -7 -14 6 -27 24
-38 49 -15 35 6 -4 8 -3 4 4 -3 6 -19 9 -34 7 -25 -3 -27 0 -29 31 -1 19 3 34
8 34 5 0 9 -11 9 -25z m1261 15 c5 0 8 -15 8 -32 -2 -31 -2 -31 -6 -5 -4 26
-7 27 -61 28 -55 2 -56 2 -17 9 22 4 46 5 53 4 8 -2 18 -4 23 -4z m-1624 -57
c-3 -10 -5 -2 -5 17 0 19 2 27 5 18 2 -10 2 -26 0 -35z m1167 8 c-4 -17 -9
-30 -11 -27 -3 2 -2 19 2 36 9 41 17 33 9 -9z m809 32 c-7 -2 -21 -2 -30 0
-10 3 -4 5 12 5 17 0 24 -2 18 -5z m-2612 -59 c-11 -27 -20 -43 -20 -37 -1 17
30 95 36 90 2 -3 -5 -26 -16 -53z m922 49 c-7 -2 -21 -2 -30 0 -10 3 -4 5 12
5 17 0 24 -2 18 -5z m1185 0 c-11 -3 -18 -14 -18 -28 0 -23 4 -24 73 -28 l72
-4 -75 1 -75 1 -3 33 c-3 28 0 32 20 31 17 -1 18 -3 6 -6z m138 -33 l1 -35 -4
33 -4 34 -52 -6 c-38 -4 -44 -3 -22 4 17 4 41 7 55 7 21 -2 25 -7 26 -37z
m-1423 23 c-18 -2 -48 -2 -65 0 -18 2 -4 4 32 4 36 0 50 -2 33 -4z m865 0
c-10 -2 -26 -2 -35 0 -10 3 -2 5 17 5 19 0 27 -2 18 -5z m366 -6 c11 -8 16
-21 13 -33 -4 -16 -5 -16 -6 4 -1 19 -6 23 -28 20 l-28 -3 0 -110 0 -110 95 2
c52 0 86 -1 75 -3 -11 -3 -30 -7 -42 -10 -17 -3 -23 -12 -24 -32 l-1 -27 -9
27 c-9 23 -17 27 -57 30 l-47 3 -3 122 -3 122 -77 4 c-73 3 -72 3 24 5 70 1
106 -2 118 -11z m243 -69 c-2 -18 -4 -6 -4 27 0 33 2 48 4 33 2 -15 2 -42 0
-60z m-819 54 c-10 -2 -18 -7 -18 -12 0 -4 -7 -11 -15 -14 -13 -5 -12 -1 2 18
11 14 24 21 33 18 12 -5 12 -7 -2 -10z m275 11 c-7 -2 -21 -2 -30 0 -10 3 -4
5 12 5 17 0 24 -2 18 -5z m-103 -60 c-10 -16 -11 -15 -6 7 3 14 6 32 7 40 1 8
4 5 6 -7 2 -12 -1 -30 -7 -40z m214 -35 c3 -50 5 -121 4 -157 -1 -58 -2 -55
-8 34 -4 55 -8 123 -9 152 -1 40 -5 53 -18 56 -15 4 -14 5 3 6 19 1 21 -6 28
-91z m-329 72 c13 -6 15 -9 5 -9 -8 0 -22 4 -30 9 -18 12 -2 12 25 0z m225 -1
c0 -7 -11 -8 -30 -4 -25 6 -32 3 -39 -17 -6 -13 -10 -18 -10 -11 -2 29 12 43
45 43 19 0 34 -5 34 -11z m197 -21 c-3 -7 -5 -2 -5 12 0 14 2 19 5 13 2 -7 2
-19 0 -25z m-1547 -18 c104 0 191 -3 194 -8 2 -4 7 -25 10 -47 l5 -40 -11 37
c-13 43 -36 51 -127 46 -52 -3 -53 -4 -66 -43 -18 -58 -45 -304 -45 -412 0
-56 -4 -93 -10 -93 -13 0 -13 146 0 247 24 186 33 240 46 272 l14 34 -52 -7
c-29 -3 -76 -6 -104 -6 -50 0 -51 -1 -62 -37 -8 -29 -10 -31 -6 -8 14 93 19
109 22 88 3 -23 4 -23 192 -23z m-259 -1 c-5 -13 -10 -19 -10 -12 -1 15 10 45
15 40 3 -2 0 -15 -5 -28z m816 25 c-3 -3 -12 -4 -19 -1 -8 3 -5 6 6 6 11 1 17
-2 13 -5z m620 0 c-3 -3 -12 -4 -19 -1 -8 3 -5 6 6 6 11 1 17 -2 13 -5z m351
-109 c0 -22 -3 -18 -9 15 -4 25 -7 59 -7 75 0 22 3 18 9 -15 4 -25 7 -58 7
-75z m-1013 95 c-3 -5 -16 -10 -28 -10 -18 0 -19 2 -7 10 20 13 43 13 35 0z
m705 0 c0 -5 -7 -7 -15 -4 -8 4 -15 8 -15 10 0 2 7 4 15 4 8 0 15 -4 15 -10z
m121 -17 c-8 -15 -10 -15 -11 -2 0 17 10 32 18 25 2 -3 -1 -13 -7 -23z m49 16
c0 8 2 12 5 9 3 -3 3 -13 -1 -22 -7 -19 -24 -11 -24 12 0 15 2 15 10 2 8 -12
10 -12 10 -1z m-375 -11 c-2 -7 27 -33 67 -58 38 -25 75 -49 81 -55 42 -36 86
-63 93 -57 4 4 0 -6 -10 -21 -10 -16 -15 -32 -11 -35 3 -4 10 0 15 8 6 8 10
10 10 4 0 -15 -86 -94 -102 -93 -10 0 -10 2 0 6 6 2 9 9 6 15 -4 6 6 22 22 37
56 50 59 59 34 81 -13 11 -26 20 -29 20 -3 0 -19 11 -35 25 -16 14 -32 25 -36
25 -3 0 -15 8 -26 18 -10 10 -36 28 -56 41 -38 23 -44 32 -31 44 10 10 13 8 8
-5z m1255 -43 l0 -54 -112 -4 c-62 -2 -30 -3 72 -2 102 1 172 0 156 -3 -26 -3
-28 -6 -22 -34 3 -17 6 -39 6 -49 0 -18 10 -19 147 -19 109 0 144 -3 136 -11
-8 -8 -54 -10 -147 -7 -110 4 -136 2 -136 -9 0 -8 -6 -16 -13 -19 -7 -2 -12
-20 -11 -42 1 -28 0 -30 -3 -7 -2 17 -9 34 -14 40 -5 5 -9 16 -8 25 0 10 3 9
9 -5 7 -17 9 -16 10 10 2 30 2 30 10 5 7 -20 8 -16 9 23 1 44 -1 47 -24 47
-24 0 -25 -2 -25 -65 l0 -65 -35 0 c-32 0 -35 2 -35 30 0 23 4 30 20 30 16 0
20 7 20 35 l0 34 -122 4 c-121 3 -120 3 35 5 86 1 157 4 157 6 0 2 -3 11 -6
20 -7 17 -34 22 -34 7 0 -6 -61 -11 -140 -13 l-140 -3 1 35 c0 19 3 29 6 23 3
-9 36 -13 114 -13 l109 0 0 45 0 44 -157 4 -158 3 163 2 162 2 0 -55z m-1845
30 c-53 -18 -91 -18 -45 -1 19 8 46 14 60 14 19 0 15 -3 -15 -13z m188 -27
c-21 -23 -6 -23 22 0 12 9 2 -2 -22 -25 -24 -24 -61 -55 -81 -70 -20 -16 -46
-36 -56 -45 -11 -10 -23 -18 -26 -18 -4 0 -20 -11 -36 -25 -16 -14 -32 -25
-36 -25 -14 0 -20 22 -9 33 9 9 14 8 21 -3 9 -13 14 -7 11 12 0 4 14 17 32 29
17 12 45 34 60 48 24 22 29 23 38 11 9 -13 10 -12 6 2 -6 17 15 42 26 31 4 -3
7 -1 7 6 0 6 12 23 28 36 15 13 21 25 14 25 -7 0 -10 5 -6 11 4 8 9 7 15 -2 5
-8 2 -20 -8 -31z m648 5 c-12 -20 -14 -14 -5 12 4 9 9 14 11 11 3 -2 0 -13 -6
-23z m-1696 -13 c-4 -12 -9 -19 -12 -17 -3 3 -2 15 2 27 4 12 9 19 12 17 3 -3
2 -15 -2 -27z m981 -1 c-26 -17 -51 -27 -55 -23 -3 4 -1 8 4 11 6 2 26 12 45
23 55 30 60 23 6 -11z m444 27 c0 -2 -8 -10 -17 -17 -16 -13 -17 -12 -4 4 13
16 21 21 21 13z m385 -44 c-3 -3 -5 0 -5 7 0 7 -4 9 -10 6 -12 -7 -12 -3 -3
21 6 15 7 14 15 -6 5 -13 6 -25 3 -28z m571 -112 c41 0 64 4 67 13 2 7 3 6 3
-3 -1 -11 -17 -16 -65 -18 -35 -2 -68 1 -72 5 -4 4 -10 44 -13 88 l-5 80 11
-82 11 -83 63 0z m-2221 110 c-4 -17 -9 -29 -12 -26 -3 2 -2 19 2 36 4 17 9
29 12 26 3 -2 2 -19 -2 -36z m455 18 c-2 -59 -28 -269 -35 -276 -4 -4 -5 16
-1 43 13 98 16 192 6 165 -8 -21 -9 -18 -5 15 3 22 5 48 5 58 0 9 7 17 15 17
9 0 15 -9 15 -22z m1136 -23 c-17 -25 -36 -33 -36 -15 0 6 7 10 15 10 8 0 18
12 22 27 3 16 8 22 11 15 2 -7 -3 -24 -12 -37z m-91 25 c3 -5 1 -10 -4 -10 -6
0 -11 5 -11 10 0 6 2 10 4 10 3 0 8 -4 11 -10z m-275 -5 c0 -2 -10 -9 -22 -15
-22 -11 -22 -10 -4 4 21 17 26 19 26 11z m104 -27 c22 -18 50 -40 60 -48 61
-48 70 -63 11 -19 -38 28 -80 61 -93 73 -17 15 -25 17 -30 9 -10 -15 -98 -63
-117 -63 -22 0 -24 -12 -10 -55 7 -22 23 -72 34 -111 12 -39 28 -80 36 -90 13
-17 16 -17 26 -4 6 8 12 11 15 5 2 -6 54 -9 134 -7 83 2 130 0 130 -6 0 -7
-21 -8 -54 -5 -30 3 -79 2 -110 -1 l-56 -7 -2 -52 -2 -52 -3 52 -4 52 -46 3
c-42 3 -46 6 -58 38 -11 30 -48 147 -69 217 -6 18 0 24 41 39 26 10 64 28 83
41 19 13 36 23 38 23 2 0 23 -15 46 -32z m503 -80 c-2 -24 -4 -7 -4 37 0 44 2
63 4 43 2 -21 2 -57 0 -80z m653 102 c0 -5 -20 -10 -45 -10 -25 0 -45 5 -45
10 0 6 20 10 45 10 25 0 45 -4 45 -10z m-945 -10 c3 -5 2 -10 -4 -10 -5 0 -13
5 -16 10 -3 6 -2 10 4 10 5 0 13 -4 16 -10z m688 -18 c49 3 52 2 54 -22 1 -14
0 -18 -3 -7 -4 13 -17 17 -60 17 -50 0 -54 2 -53 23 1 18 2 18 6 4 4 -16 13
-18 56 -15z m-610 3 c-3 -9 -8 -14 -10 -11 -3 3 -2 9 2 15 9 16 15 13 8 -4z
m-1807 -46 c-18 -41 -21 -26 -4 22 6 18 13 29 15 23 2 -6 -3 -26 -11 -45z
m944 46 c0 -7 -83 -45 -88 -41 -2 3 13 14 34 24 41 21 54 25 54 17z m1367 -82
c-10 -10 -20 -11 -38 -4 -23 9 -23 10 9 10 32 1 32 1 27 44 l-5 42 10 -39 c8
-31 7 -43 -3 -53z m-1597 0 c19 -39 59 -94 92 -129 46 -48 58 -67 57 -90 l-2
-29 -4 30 c-3 17 -20 45 -41 64 -52 51 -98 115 -122 168 -11 25 -20 47 -20 49
0 14 11 -4 40 -63z m511 57 c18 0 19 -9 17 -122 l-2 -123 -3 111 -4 112 -44
11 c-51 13 -62 27 -14 17 17 -3 40 -6 50 -6z m2537 -65 c0 -29 0 -29 -8 -5 -4
14 -8 39 -8 55 0 29 0 29 8 5 4 -14 8 -38 8 -55z m-3591 33 c-3 -7 -5 -2 -5
12 0 14 2 19 5 13 2 -7 2 -19 0 -25z m1607 -7 c-10 -17 -22 -31 -26 -31 -4 0
3 15 15 34 27 41 36 39 11 -3z m1210 -1 c13 0 38 -3 56 -7 23 -4 31 -3 26 5
-3 6 -2 13 4 17 5 3 10 -1 10 -9 0 -9 7 -16 15 -16 8 0 15 -4 15 -10 0 -6 43
-11 108 -11 59 -1 96 -3 82 -6 -56 -9 -70 -14 -70 -28 0 -9 10 -15 25 -15 14
0 25 6 25 13 0 9 12 11 39 9 21 -2 42 1 45 7 4 6 12 11 17 11 6 0 7 -4 4 -10
-4 -6 6 -10 24 -10 20 0 31 6 34 18 3 10 5 6 6 -10 1 -25 -2 -28 -33 -28 -21
0 -36 -6 -40 -15 -5 -13 12 -15 114 -15 97 0 120 -3 120 -14 0 -8 -6 -17 -12
-19 -7 -3 5 -6 26 -6 25 -1 36 -5 30 -10 -11 -11 -184 -19 -184 -8 0 4 -51 8
-112 9 l-113 2 113 3 c63 2 112 8 112 13 0 6 -108 10 -285 10 l-285 0 0 -25
c0 -14 -4 -25 -10 -25 -5 0 -10 11 -10 24 0 15 -7 26 -20 29 -61 16 5 22 212
19 249 -3 367 9 173 18 -68 3 -108 9 -105 15 3 6 21 10 40 10 19 0 38 4 42 10
5 7 -38 12 -130 15 l-137 5 -2 40 c0 22 1 30 4 18 3 -16 12 -23 27 -23z
m-2753 -140 l-10 -115 4 135 c5 146 6 158 12 120 2 -14 -1 -77 -6 -140z m1629
150 c0 -5 -4 -10 -10 -10 -5 0 -10 5 -10 10 0 6 5 10 10 10 6 0 10 -4 10 -10z
m-1709 -72 c-7 -26 -9 -28 -10 -10 -1 32 -33 25 -41 -8 -5 -23 -11 -25 -63
-26 l-57 -1 54 4 c53 4 55 5 58 36 2 27 8 33 31 35 15 2 27 9 28 15 0 9 2 9 5
0 3 -6 1 -26 -5 -45z m-180 -9 c-9 -23 -10 -23 -10 -2 -1 12 2 30 6 40 6 15 8
15 11 2 1 -8 -2 -26 -7 -40z m626 19 c-3 -7 -5 -2 -5 12 0 14 2 19 5 13 2 -7
2 -19 0 -25z m566 10 c12 -6 29 -14 37 -18 11 -5 15 -25 16 -71 l1 -64 -6 64
-6 65 -49 12 c-45 12 -49 11 -53 -7 -3 -10 -9 -19 -14 -19 -5 0 -9 -4 -9 -10
0 -5 3 -9 8 -9 27 5 52 -3 52 -16 0 -8 5 -15 11 -15 9 0 10 -21 6 -70 -6 -69
-5 -70 18 -70 20 0 24 6 28 38 4 32 4 31 3 -8 l-1 -45 -55 3 c-80 4 -84 6 -65
41 8 17 15 38 15 48 0 10 7 31 15 47 18 34 18 33 -16 37 -19 3 -33 -4 -48 -21
-11 -14 -20 -20 -21 -14 0 6 7 17 15 24 8 7 25 30 37 51 23 41 42 47 81 27z
m1355 -53 c0 -29 0 -29 -8 -5 -4 14 -8 36 -8 50 -1 23 0 23 8 5 5 -11 8 -33 8
-50z m-681 -22 c-2 -16 -4 -5 -4 22 0 28 2 40 4 28 2 -13 2 -35 0 -50z m160
-90 c-2 -32 -3 -8 -3 52 0 61 1 87 3 58 2 -29 2 -78 0 -110z m143 46 c0 -121
19 -136 22 -16 0 45 3 67 5 50 4 -27 10 -34 36 -42 l32 -9 -32 -1 -33 -1 0
-55 0 -55 53 -2 52 -2 -52 -3 -53 -4 0 -90 c0 -63 4 -91 13 -93 6 -3 44 -7 84
-10 l72 -5 4 57 3 57 2 -63 2 -62 -86 4 c-57 3 -90 9 -95 18 -5 7 -9 52 -9
101 0 86 0 87 -25 87 -25 0 -25 0 -26 -97 -1 -118 -6 -112 -12 14 l-4 92 36 4
c20 2 1 4 -41 5 l-78 2 0 -120 0 -120 43 0 c91 0 392 -13 396 -16 3 -3 -98 -3
-223 -2 l-228 3 -2 127 c-2 143 -6 137 77 140 44 1 47 2 17 6 l-35 5 35 6 35
6 -3 99 c-3 70 -1 96 7 92 7 -5 11 -45 11 -107z m-381 -45 l1 -61 45 1 c24 1
48 5 51 9 4 4 22 7 39 7 l32 0 -3 73 c-3 67 -2 69 6 22 9 -54 12 -138 3 -117
-6 14 -63 17 -63 2 0 -15 -120 -13 -121 3 -6 122 -6 205 1 167 5 -25 9 -73 9
-106z m911 116 c0 -6 -27 -10 -60 -10 -33 0 -60 4 -60 10 0 6 27 10 60 10 33
0 60 -4 60 -10z m398 -7 c-38 -2 -98 -2 -135 0 -38 2 -7 3 67 3 74 0 105 -1
68 -3z m419 1 c-3 -3 -12 -4 -19 -1 -8 3 -5 6 6 6 11 1 17 -2 13 -5z m-3330
-10 c-3 -3 -12 -4 -19 -1 -8 3 -5 6 6 6 11 1 17 -2 13 -5z m424 -40 c-5 -21
-9 -30 -10 -19 -1 24 10 67 15 62 3 -2 0 -22 -5 -43z m1778 -14 c5 0 11 9 14
20 4 15 13 20 39 18 l33 -1 -32 -4 c-20 -3 -33 -10 -33 -19 0 -11 18 -14 85
-14 47 0 85 -4 85 -9 0 -6 -62 -9 -154 -8 -85 1 -152 5 -149 10 2 4 24 7 49 7
41 0 44 2 45 28 l2 27 4 -27 c2 -16 8 -28 12 -28z m-2208 -45 c-8 -58 -9 -59
-10 -15 0 25 2 56 6 70 11 41 13 9 4 -55z m2467 68 c-32 -2 -84 -2 -115 0 -32
2 -6 3 57 3 63 0 89 -1 58 -3z m209 -30 c-3 -10 -5 -4 -5 12 0 17 2 24 5 18 2
-7 2 -21 0 -30z m916 -151 c1 -79 5 -135 9 -125 4 12 7 3 7 -24 1 -30 -3 -43
-12 -43 -10 0 -16 -30 -23 -115 -5 -63 -5 -116 -1 -118 13 -4 -20 -147 -49
-214 -8 -17 -14 -40 -14 -51 0 -12 -4 -24 -10 -27 -14 -9 -12 17 5 58 22 52
20 56 -32 60 l-48 3 52 2 c49 2 53 4 59 30 3 15 10 37 15 50 18 46 10 55 -21
24 -16 -17 -30 -36 -30 -42 0 -6 -5 -8 -11 -4 -8 4 -9 0 -4 -15 6 -19 3 -21
-32 -20 -30 2 -32 3 -10 6 20 3 27 10 27 26 0 28 10 41 35 45 19 4 35 19 35
34 0 13 -105 -4 -116 -18 -12 -15 -107 -37 -98 -23 3 5 16 9 29 9 33 0 55 10
55 26 0 9 17 14 53 17 42 3 37 4 -25 5 l-78 2 1 38 c0 20 4 46 9 57 7 16 9 12
9 -18 1 -37 2 -38 29 -33 63 12 137 17 122 8 -8 -5 -45 -13 -82 -17 -99 -10
-94 -25 7 -25 83 0 86 1 95 26 6 14 10 61 10 104 0 76 -1 79 -27 87 -27 9 -27
10 -5 15 12 4 22 2 22 -3 0 -5 5 -9 10 -9 6 0 10 10 10 21 0 18 -4 20 -22 14
-89 -27 -181 -38 -478 -54 -326 -18 -440 -21 -440 -11 0 6 26 11 58 11 31 1
127 5 212 9 l155 8 -194 -2 c-255 -1 -199 10 114 23 138 6 266 15 285 20 l35
9 -40 2 c-22 1 -53 6 -70 11 -20 5 -6 6 40 3 39 -3 78 -8 88 -10 14 -5 17 2
19 38 1 43 1 43 7 8 4 -25 7 -9 11 55 l6 90 2 -97 2 -98 33 0 c17 0 39 5 47
10 11 7 5 10 -25 11 -39 1 -39 2 -10 9 44 11 116 11 90 0 -17 -7 -15 -9 13 -9
32 -1 44 13 20 22 -10 4 -10 6 -1 6 17 1 27 -19 15 -31 -12 -12 -152 -36 -262
-44 -41 -3 -106 -9 -145 -14 l-70 -7 85 -2 c95 -1 216 12 333 36 l77 17 0 42
c0 24 5 46 10 49 11 7 13 67 4 103 -4 15 -14 22 -30 22 -13 0 -24 5 -24 10 0
6 5 10 10 10 6 0 10 7 10 15 0 8 -4 15 -10 15 -5 0 -10 15 -9 33 0 27 2 29 9
12 l9 -20 1 20 c1 13 5 8 12 -14 5 -19 7 -43 5 -53 -3 -10 -1 -18 4 -18 5 0 9
28 10 63 0 52 2 58 11 37 5 -14 10 -89 11 -168z m-2683 153 c-7 -8 -18 -15
-24 -15 -15 0 -58 -44 -51 -52 3 -3 -6 -3 -20 0 -14 2 -28 9 -31 14 -4 6 2 7
15 3 16 -5 29 1 51 25 16 17 34 29 39 26 5 -3 12 1 15 10 4 9 9 14 13 11 3 -4
0 -13 -7 -22z m2707 -182 c-2 -38 -3 -7 -3 67 0 74 1 105 3 68 2 -38 2 -98 0
-135z m-2207 162 c-41 -24 -93 -46 -98 -40 -3 2 8 9 24 15 16 5 40 17 54 25
14 8 30 14 35 14 6 0 -1 -6 -15 -14z m1665 -5 c-159 -10 -427 -9 -360 0 28 4
147 7 265 7 189 0 201 -1 95 -7z m323 3 c-10 -2 -28 -2 -40 0 -13 2 -5 4 17 4
22 1 32 -1 23 -4z m-2953 -170 c-4 -46 -11 -83 -17 -83 -6 0 -7 8 -3 18 4 9
10 67 14 127 3 63 7 91 9 65 2 -25 1 -82 -3 -127z m2850 157 c-4 -6 -63 -10
-146 -10 -86 0 -139 -4 -139 -10 0 -6 43 -10 109 -10 60 0 123 -3 141 -7 22
-4 31 -3 27 4 -4 6 12 13 40 17 72 10 171 7 179 -5 13 -22 -18 -34 -89 -32
-72 1 -72 1 -17 -6 41 -6 18 -8 -92 -9 -99 -1 -148 2 -148 9 0 5 5 7 10 4 6
-3 10 -1 10 4 0 7 -47 11 -135 11 -89 0 -135 -4 -135 -11 0 -6 -6 -4 -14 4
-17 16 -114 23 -459 33 -191 6 -230 5 -238 -7 -7 -11 -9 -10 -9 4 0 18 15 19
368 13 288 -5 721 2 740 12 2 1 0 -2 -3 -8z m-2533 -47 c-5 -83 -9 -90 -11
-20 0 37 2 67 7 67 4 0 6 -21 4 -47z m1404 -41 c-11 -10 -13 3 -7 48 l6 45 3
-44 c2 -23 1 -46 -2 -49z m-1020 23 c43 4 64 3 64 -4 0 -7 -27 -11 -70 -11
l-70 0 1 33 c2 31 2 31 6 3 l5 -28 64 7z m1417 13 c62 2 110 2 107 -1 -3 -2
-54 -6 -115 -8 -104 -4 -110 -3 -111 16 -1 13 1 14 3 4 4 -14 18 -16 116 -11z
m-2152 -39 c-7 -44 -9 -47 -10 -19 -1 36 9 84 15 77 3 -2 0 -28 -5 -58z m1886
-31 c-2 -18 -4 -4 -4 32 0 36 2 50 4 33 2 -18 2 -48 0 -65z m-1412 72 c3 -5
-1 -10 -9 -10 -8 0 -18 5 -21 10 -3 6 1 10 9 10 8 0 18 -4 21 -10z m1843 -12
c-2 -14 -11 -24 -23 -26 -18 -2 -18 -2 -2 8 9 6 17 15 17 20 0 15 -28 12 -33
-2 -3 -8 -6 -6 -6 5 -1 12 7 17 25 17 21 0 25 -4 22 -22z m152 -8 c0 -18 -6
-20 -62 -18 l-63 2 58 3 c41 3 57 8 57 18 0 8 2 15 5 15 3 0 5 -9 5 -20z m228
13 c-16 -2 -28 -9 -28 -14 0 -5 -34 -9 -75 -9 -41 0 -75 -4 -75 -8 0 -5 25 -7
55 -4 73 6 85 0 76 -35 -6 -24 -13 -28 -47 -31 -63 -5 -91 10 -96 52 -2 19 0
32 4 30 4 -3 8 -2 8 3 0 4 29 7 65 7 36 -1 68 2 71 7 3 5 20 8 37 8 30 -2 31
-2 5 -6z m-2388 -203 c15 0 20 9 23 43 3 34 4 33 3 -11 l-1 -52 55 0 c30 0
126 -3 212 -7 l156 -6 5 29 c3 25 4 24 6 -8 l1 -38 -137 5 c-383 13 -808 25
-885 25 -60 0 -88 4 -88 12 0 11 169 8 515 -8 69 -3 115 -2 108 3 -10 7 -11
34 -5 109 l7 99 3 -97 c2 -89 5 -98 22 -98z m113 118 c1 -1 79 -4 172 -8 l170
-6 -150 -4 c-117 -3 -137 -5 -90 -10 47 -5 34 -7 -60 -7 -85 0 -105 2 -70 7
l50 7 -52 1 c-58 2 -74 22 -18 22 32 0 35 2 37 33 l1 32 4 -32 c2 -18 5 -34 6
-35z m902 10 l-4 -53 11 48 c9 38 15 47 32 46 15 -1 16 -3 5 -6 -18 -4 -30
-54 -27 -113 l1 -35 7 40 c7 38 7 38 9 -18 1 -42 -2 -56 -11 -51 -7 4 -8 3 -4
-4 4 -7 15 -12 24 -12 14 0 17 9 15 57 l-2 58 11 -53 c13 -68 8 -80 -31 -74
-27 4 -31 9 -32 36 -2 29 -2 28 -9 -9 -4 -22 -8 -35 -9 -30 0 6 -27 10 -58 9
-41 -1 -45 0 -15 3 39 4 42 6 42 32 l0 29 -122 10 -123 11 115 -3 c147 -3 150
-3 150 40 l0 34 -182 3 -183 2 186 3 187 2 6 25 c10 41 15 29 11 -27z m928 45
c-7 -2 -19 -2 -25 0 -7 3 -2 5 12 5 14 0 19 -2 13 -5z m542 -3 c3 -5 34 -10
68 -11 34 0 56 -3 49 -6 -6 -2 -10 -9 -6 -14 7 -12 -22 -12 -45 0 -10 6 -29 7
-42 4 l-24 -7 25 -7 25 -7 -27 -1 c-16 -1 -28 4 -28 9 0 6 -9 10 -19 10 -15 0
-21 -9 -24 -37 -4 -33 -4 -32 -3 7 1 40 4 45 26 49 l25 4 -25 8 c-23 6 -23 7
-3 8 12 1 25 -3 28 -9z m355 0 c0 -5 -19 -10 -41 -10 -37 0 -41 -2 -36 -21 4
-15 0 -23 -14 -26 -40 -11 -17 -21 36 -16 38 4 55 2 55 -6 0 -12 -97 -14 -140
-2 -20 5 -26 14 -28 44 -2 21 1 37 7 37 6 0 11 -16 11 -35 0 -24 5 -35 15 -35
8 0 15 5 15 10 0 6 7 10 15 10 9 0 15 9 15 24 0 22 5 25 43 29 23 2 43 4 45 5
1 1 2 -2 2 -8z m-970 -10 c0 -5 -15 -10 -32 -10 -25 0 -29 -3 -18 -10 22 -14
70 -12 70 3 0 9 2 9 8 1 4 -7 18 -14 32 -17 25 -4 25 -4 -2 -6 -27 -1 -28 -4
-28 -50 0 -27 -3 -63 -6 -80 l-6 -31 68 0 69 0 3 85 c3 71 1 85 -12 85 -8 0
-18 -4 -21 -10 -3 -5 -13 -10 -21 -10 -12 0 -11 4 3 19 16 17 28 18 111 14
l92 -6 0 -31 0 -31 114 -3 115 -4 4 54 3 53 2 -57 c2 -42 -2 -59 -13 -65 -11
-7 -14 -18 -9 -41 6 -30 10 -32 48 -33 22 0 37 -2 31 -5 -5 -2 -77 0 -160 5
-103 5 -126 9 -74 10 113 2 139 9 139 37 0 24 -1 24 -110 24 l-110 0 0 40 0
40 -59 0 -58 0 -6 -72 c-3 -40 -4 -74 -3 -76 2 -1 68 -5 147 -9 l144 -8 -90
-6 c-49 -4 -147 -8 -217 -10 -107 -2 -128 -4 -132 -18 -2 -9 -4 28 -4 82 0 54
-1 99 -3 101 -2 2 -19 6 -36 9 l-33 7 0 -73 c0 -39 -3 -83 -7 -96 -4 -17 -3
-22 5 -17 7 4 20 2 29 -3 14 -8 9 -10 -25 -11 -32 0 -41 3 -35 13 4 6 10 57
13 112 l5 100 35 6 c19 4 36 7 38 8 1 0 2 -3 2 -9z m-1373 -132 c-2 -24 -4 -5
-4 42 0 47 2 66 4 43 2 -24 2 -62 0 -85z m580 100 c-3 -8 -6 -5 -6 6 -1 11 2
17 5 13 3 -3 4 -12 1 -19z m-659 -55 c-27 -2 -69 -2 -95 0 -27 2 -5 3 47 3 52
0 74 -1 48 -3z m2275 0 c-7 -2 -19 -2 -25 0 -7 3 -2 5 12 5 14 0 19 -2 13 -5z
m-1960 -95 c67 -1 94 -4 67 -7 l-45 -5 60 -6 c37 -4 -1 -7 -100 -6 -138 0
-147 1 -65 6 89 6 91 6 28 8 l-68 2 2 53 2 52 3 -47 4 -48 112 -2z m-35 75
c-10 -2 -28 -2 -40 0 -13 2 -5 4 17 4 22 1 32 -1 23 -4z m1018 -113 c21 0 33
-4 29 -10 -3 -5 -22 -10 -41 -10 l-34 0 2 68 2 67 3 -57 4 -58 35 0z m481 84
c-3 -3 -12 -4 -19 -1 -8 3 -5 6 6 6 11 1 17 -2 13 -5z m140 -11 c-20 -2 -52
-2 -70 0 -17 2 0 4 38 4 39 0 53 -2 32 -4z m246 -10 c-7 -2 -19 -2 -25 0 -7 3
-2 5 12 5 14 0 19 -2 13 -5z m-3088 -43 c17 -4 -8 -5 -55 -2 -47 2 -87 6 -89
8 -8 7 114 2 144 -6z m102 -6 c-3 -3 -12 -4 -19 -1 -8 3 -5 6 6 6 11 1 17 -2
13 -5z m950 0 c-3 -3 -12 -4 -19 -1 -8 3 -5 6 6 6 11 1 17 -2 13 -5z m-754
-11 c-13 -2 -35 -2 -50 0 -16 2 -5 4 22 4 28 0 40 -2 28 -4z m100 0 c-7 -2
-21 -2 -30 0 -10 3 -4 5 12 5 17 0 24 -2 18 -5z m432 -3 c70 -5 16 -6 -150 -3
-143 2 -262 6 -264 9 -7 7 294 2 414 -6z m458 -7 c-7 -2 -19 -2 -25 0 -7 3 -2
5 12 5 14 0 19 -2 13 -5z m1980 -10 c-7 -2 -21 -2 -30 0 -10 3 -4 5 12 5 17 0
24 -2 18 -5z m-78 -13 c-16 -4 -50 -7 -75 -7 l-45 0 45 7 c25 4 59 7 75 7 l30
1 -30 -8z m135 0 c0 -5 -15 -10 -32 -9 -28 0 -30 2 -13 9 28 12 45 12 45 0z
m-3605 -20 l50 -7 -60 -1 c-33 -1 -78 3 -100 7 l-40 9 50 0 c28 0 73 -3 100
-8z m3250 0 c-4 -6 -66 -9 -158 -8 -120 1 -137 3 -82 8 119 11 247 11 240 0z
m65 6 c0 -2 -11 -6 -25 -8 -13 -3 -22 -1 -19 3 5 9 44 13 44 5z m205 -6 c-11
-5 -36 -8 -55 -8 -32 0 -33 1 -10 8 14 4 39 8 55 8 25 1 27 -1 10 -8z m-3350
-20 c-18 -7 -16 -8 10 -12 19 -3 10 -6 -26 -7 l-56 -1 4 -82 c3 -96 -3 -93
-12 5 l-7 67 -56 2 -57 1 55 7 55 7 -67 1 -67 2 -4 -57 -3 -58 -2 62 -2 62 73
4 c143 6 183 6 162 -3z m334 -1 c-8 -5 86 -9 236 -11 230 -2 220 -2 -128 -7
-281 -5 -380 -9 -385 -18 -6 -9 -24 -10 -62 -5 -53 6 -51 7 60 18 90 9 104 12
65 15 -30 2 -4 5 65 8 63 4 126 7 139 8 18 1 20 -1 10 -8z m168 5 c-3 -3 -12
-4 -19 -1 -8 3 -5 6 6 6 11 1 17 -2 13 -5z m2130 -1 c-20 -2 -52 -2 -70 0 -17
2 0 4 38 4 39 0 53 -2 32 -4z m-1428 -19 c2 -2 -48 -4 -112 -4 l-117 0 -2
-152 c-1 -131 -2 -142 -8 -78 -4 41 -8 110 -9 153 l-1 77 -45 0 -46 0 5 -77
c4 -52 2 -68 -3 -48 -5 17 -9 56 -10 88 l-1 57 173 -6 c94 -4 174 -8 176 -10z
m302 9 l-113 -4 6 -82 c3 -45 2 -122 -3 -172 -7 -87 -8 -83 -12 88 l-4 177
120 -2 120 -2 -114 -3z m-23 -20 c-10 -2 -28 -2 -40 0 -13 2 -5 4 17 4 22 1
32 -1 23 -4z m-1062 -16 c1 -1 4 -67 7 -147 3 -89 2 -126 -3 -95 -5 28 -9 92
-9 143 l-1 92 -57 1 c-32 0 -80 5 -108 9 -36 7 -20 8 60 4 60 -3 110 -6 111
-7z m867 6 l-63 -4 -2 -147 -2 -147 -3 147 c-3 143 -4 147 -26 151 -12 2 19 4
68 4 67 -1 74 -2 28 -4z m310 0 c-13 -2 -35 -2 -50 0 -16 2 -5 4 22 4 28 0 40
-2 28 -4z m124 -145 c-2 -29 -3 -6 -3 52 0 58 1 81 3 53 2 -29 2 -77 0 -105z
m1386 145 c-17 -3 -23 -12 -24 -31 -2 -24 -2 -24 -6 -4 -3 16 -11 22 -31 22
-21 0 -24 2 -12 10 8 5 33 9 55 8 23 0 30 -3 18 -5z m-414 -30 c-2 -24 -2 -25
-6 -5 -4 18 -11 22 -43 22 l-39 0 -4 -57 -3 -58 -2 63 -2 62 50 0 c48 0 50 -1
49 -27z m521 2 c0 -14 -4 -25 -9 -25 -4 0 -6 11 -3 25 2 14 6 25 8 25 2 0 4
-11 4 -25z m-2973 -97 c-2 -24 -4 -7 -4 37 0 44 2 63 4 43 2 -21 2 -57 0 -80z
m685 -41 c4 -78 10 -166 14 -194 6 -49 5 -53 -15 -53 -21 0 -38 37 -28 62 3 7
6 1 6 -14 1 -16 7 -28 14 -28 10 0 11 14 5 63 -13 108 -21 322 -12 314 5 -5
12 -72 16 -150z m445 91 c-2 -13 -4 -3 -4 22 0 25 2 35 4 23 2 -13 2 -33 0
-45z m618 -48 l-7 -110 25 0 c22 0 25 5 31 53 3 28 6 79 6 112 1 46 3 56 11
42 7 -12 7 -47 0 -112 -6 -52 -11 -97 -11 -100 0 -3 21 -5 46 -5 l46 0 -5 33
c-3 17 -2 66 2 107 l8 75 2 -107 c1 -123 -4 -131 -77 -121 l-42 6 0 -39 c0
-54 11 -67 49 -61 17 3 31 1 31 -4 0 -5 -20 -9 -45 -9 l-45 0 0 60 0 60 -100
0 -100 0 0 -55 0 -55 78 -2 77 -2 -77 -3 -78 -4 0 -34 0 -35 98 1 c53 1 135 4
182 8 76 7 67 8 -82 9 -99 1 -169 6 -173 12 -4 7 54 10 165 10 l172 0 -7 50
-7 50 46 0 c25 0 46 -5 46 -10 0 -7 40 -10 113 -8 l112 3 -2 28 c-1 21 3 27
18 27 14 0 19 -7 19 -24 0 -23 4 -25 53 -28 l52 -3 1 -53 1 -52 -4 49 -4 50
-52 3 c-45 3 -52 6 -58 28 -6 23 -6 22 -10 -9 l-4 -35 -115 3 c-63 1 -119 7
-124 12 -6 5 -25 9 -44 9 -26 0 -33 -4 -30 -17 3 -16 21 -18 176 -21 144 -2
172 -5 172 -17 0 -10 11 -15 35 -15 19 0 35 -5 35 -11 0 -7 -12 -10 -30 -7
l-30 5 0 -54 c0 -56 10 -64 56 -46 16 6 16 7 -2 14 -14 6 -8 8 21 8 53 2 61 8
69 61 3 25 9 62 12 83 l6 38 84 -3 c46 -2 84 0 84 5 0 4 12 7 26 7 l26 0 -7
-71 c-6 -55 -4 -73 6 -80 11 -7 10 -9 -3 -9 -10 0 -18 5 -18 10 0 6 -33 10
-77 10 -43 0 -85 5 -93 10 -10 7 14 10 76 10 l92 0 4 30 5 30 -89 0 c-85 0
-94 -3 -89 -32 0 -5 -3 -8 -9 -8 -5 0 -10 8 -11 18 -1 9 -6 -12 -13 -48 -10
-61 -13 -65 -40 -68 -28 -4 -56 -22 -56 -39 0 -4 -56 -10 -125 -11 -85 -3
-125 -1 -125 7 0 6 11 8 28 5 15 -3 52 -1 82 4 47 8 30 10 -110 12 -196 3
-172 17 33 19 l137 1 0 55 0 55 -165 0 c-140 0 -165 -2 -165 -15 0 -13 24 -15
155 -15 97 0 155 -4 155 -10 0 -6 -37 -11 -87 -12 l-88 -2 83 -3 c60 -3 82 -7
79 -16 -4 -13 -99 -23 -229 -26 -76 -1 -78 -2 -78 -26 0 -24 2 -25 70 -25 54
0 71 -4 78 -17 9 -15 24 -16 183 -5 204 14 289 15 289 4 0 -17 69 -29 146 -25
57 3 75 1 64 -6 -11 -8 -12 -11 -2 -11 7 0 10 -5 6 -11 -10 -16 -185 11 -212
33 -12 10 -347 4 -439 -8 -35 -5 -42 -3 -48 15 -6 20 -13 21 -126 21 -118 0
-119 0 -119 -23 l0 -24 200 0 c111 0 204 -3 207 -7 4 -3 -88 -6 -203 -6 -194
0 -207 -1 -186 -16 21 -14 50 -15 308 -3 156 7 284 16 284 19 0 4 35 7 78 7
72 1 75 0 47 -13 -16 -7 -24 -13 -16 -14 8 0 11 -3 8 -7 -4 -3 -25 0 -47 7
-31 10 -43 11 -52 2 -7 -7 -41 -13 -78 -14 -54 -2 -48 -3 35 -7 l100 -6 -75
-12 -75 -11 87 1 c57 1 89 -2 92 -9 6 -16 -66 -24 -178 -22 l-91 2 100 6 100
6 -100 4 c-82 2 -92 4 -55 10 62 10 49 11 -135 12 l-160 1 137 6 c75 3 140 9
144 13 7 7 -419 0 -443 -8 -11 -3 -19 -40 -10 -46 1 0 70 -4 152 -7 l150 -6 3
-67 c2 -47 -1 -68 -9 -68 -7 0 -10 11 -7 29 4 28 3 29 -46 35 -28 3 -144 6
-258 6 -144 0 -209 3 -214 11 -5 9 17 10 82 5 165 -11 439 -10 438 3 -1 6 -2
17 -2 24 -2 9 -29 11 -108 9 -59 -2 -127 -1 -151 3 l-45 7 5 39 c3 21 1 39 -4
39 -5 0 -9 -12 -9 -27 0 -16 -5 -35 -10 -43 -7 -10 -8 12 -4 73 7 84 6 87 -15
87 -14 0 -21 -6 -21 -20 0 -11 -4 -20 -10 -20 -17 0 -11 -18 8 -24 9 -3 -105
-4 -255 -2 -244 3 -272 2 -276 -13 -3 -10 -5 -8 -6 7 0 12 5 22 12 23 56 2
299 -2 367 -7 55 -3 80 -2 70 4 -8 5 -98 12 -200 15 -102 3 -201 10 -220 16
-36 10 53 9 363 -5 112 -5 127 -4 127 10 0 14 -19 16 -138 16 -195 0 -382 11
-382 23 0 6 35 7 98 2 53 -4 206 -9 338 -11 l242 -3 6 31 c3 17 4 33 1 36 -6
6 -698 2 -704 -4 -2 -2 77 -4 177 -4 110 0 183 -4 187 -10 4 -6 72 -10 168
-11 92 0 153 -4 142 -8 -26 -11 -297 -1 -310 10 -5 5 -99 9 -208 9 l-199 0 6
-24 c3 -13 8 -30 11 -38 4 -11 -30 -12 -190 -10 -166 2 -195 1 -195 -12 0 -31
13 -46 40 -46 15 0 48 -3 74 -6 40 -6 46 -10 46 -30 l0 -24 133 0 c289 -1 486
-5 491 -10 3 -3 1 -28 -3 -55 -7 -40 -9 -43 -10 -17 l-1 32 -147 2 -148 2 148
3 c82 2 147 8 147 13 0 11 -407 18 -432 7 -9 -4 -19 -22 -21 -40 -3 -28 -4
-26 -5 11 l-2 42 -78 0 c-43 0 -82 4 -87 9 -6 5 -19 11 -30 14 -18 4 -17 5 3
6 13 0 20 6 17 11 -3 6 -35 10 -71 10 -60 0 -65 2 -74 26 -6 14 -10 35 -10 47
0 12 -5 38 -10 58 l-10 36 -158 6 c-86 3 -269 13 -405 21 -251 16 -311 27
-324 63 -3 8 -23 14 -52 15 l-46 1 43 4 c45 4 50 16 36 71 -6 20 -12 22 -93
24 l-86 2 85 6 c112 7 85 17 -72 25 -108 5 -128 4 -128 -8 0 -14 -20 -27 -41
-27 -5 0 -8 15 -8 33 l1 32 7 -29 c5 -26 7 -28 20 -13 7 10 10 17 5 17 -5 0
-2 5 6 10 8 5 41 10 73 10 47 0 57 3 58 18 1 16 2 16 6 0 4 -17 20 -22 108
-32 147 -17 164 -23 133 -42 -7 -4 -8 -3 -4 4 5 8 -4 12 -27 12 l-35 0 5 -42
c10 -91 28 -108 117 -108 24 0 27 3 16 10 -11 7 -12 10 -2 10 10 0 12 18 8 83
-4 63 -3 72 4 37 5 -25 9 -64 9 -87 l1 -43 73 -2 c69 -2 70 -2 15 -5 -90 -6
-68 -20 40 -26 53 -3 171 -11 262 -16 91 -6 386 -12 655 -13 l490 -3 3 98 3
97 78 0 c62 0 80 3 85 15 3 9 9 58 12 110 4 52 9 95 12 95 2 0 1 -49 -3 -110z
m574 106 c-9 -9 -379 -13 -379 -5 0 5 86 9 192 9 105 0 189 -2 187 -4z m-2026
-13 c-7 -2 -21 -2 -30 0 -10 3 -4 5 12 5 17 0 24 -2 18 -5z m233 -28 c1 -27 1
-28 -3 -3 -4 26 -6 27 -79 31 l-74 3 77 0 78 -1 1 -30z m-183 8 l-73 -4 -1
-67 c-1 -77 -16 -51 -18 31 l-1 47 83 -2 82 -2 -72 -3z m834 -275 c-1 -51 -3
-12 -3 87 0 99 2 141 3 93 2 -48 2 -129 0 -180z m766 178 c-5 -30 -2 -34 21
-38 21 -4 26 -1 26 16 0 21 4 21 165 21 91 0 165 -3 165 -7 0 -5 -72 -8 -160
-8 -128 0 -160 -3 -160 -14 0 -11 32 -12 173 -8 94 3 174 7 177 11 3 3 17 7
33 9 26 3 27 2 29 -55 1 -50 2 -52 5 -15 l4 42 95 0 c52 0 94 -4 94 -9 0 -5
32 -12 70 -16 l70 -7 -1 -32 c-1 -17 -5 -44 -10 -61 -6 -22 -7 -14 -4 28 4 46
2 57 -10 57 -12 0 -15 -15 -17 -72 l-2 -73 -6 75 c-4 41 -7 70 -8 63 -3 -16
-135 -26 -197 -14 -43 7 -35 9 63 9 62 0 116 3 119 6 4 3 -12 6 -35 6 -31 0
-42 4 -42 15 0 12 -16 15 -84 15 l-83 0 -9 -82 c-5 -55 -9 -71 -12 -49 -3 27
-6 31 -14 20 -6 -10 -8 7 -5 55 l5 69 -218 -7 c-119 -3 -225 -4 -234 0 -22 8
-22 84 0 84 2 0 0 -15 -3 -34z m-657 -63 c4 -25 10 -33 27 -34 21 -1 20 -1 -3
-9 -14 -5 -18 -8 -9 -9 9 -1 19 -10 22 -21 5 -18 14 -20 86 -20 71 0 81 -2 80
-17 0 -11 -3 -13 -6 -5 -3 8 -30 12 -83 12 -70 0 -79 2 -85 20 -3 11 -12 20
-19 20 -13 0 -27 68 -25 119 l2 26 4 -25 c2 -14 6 -40 9 -57z m77 -5 c7 -5 31
-5 55 -2 28 4 42 3 42 -5 0 -7 -23 -11 -60 -11 l-60 0 2 53 c1 47 2 48 5 12 3
-22 10 -43 16 -47z m-715 -58 l-1 -55 -8 45 c-4 25 -7 63 -7 85 0 38 1 39 8
10 4 -16 8 -55 8 -85z m-358 -84 c-7 -7 -10 1 -10 25 0 18 -2 59 -5 89 -4 45
-2 41 10 -24 11 -54 12 -83 5 -90z m-647 127 c-7 -2 -21 -2 -30 0 -10 3 -4 5
12 5 17 0 24 -2 18 -5z m2562 -28 c0 -18 -7 -20 -58 -20 -88 0 -99 17 -23 36
51 12 81 7 81 -16z m-1661 -72 l7 -63 -83 1 c-46 0 -105 5 -133 9 -39 7 -22 8
73 7 l122 -2 0 59 c0 74 5 70 14 -11z m586 -8 l0 -75 -35 0 c-19 0 -35 5 -35
10 0 6 14 10 30 10 l30 0 0 65 c0 36 2 65 5 65 3 0 5 -34 5 -75z m-370 -59 c5
-5 56 -5 115 -1 l107 7 -4 29 c-3 16 -1 29 4 29 4 0 8 -18 8 -40 l0 -40 -120
0 c-120 0 -121 0 -130 26 -6 14 -10 40 -9 57 1 28 2 27 11 -13 5 -25 14 -49
18 -54z m512 68 c10 -21 9 -27 -3 -35 -27 -17 -39 -10 -39 26 0 43 25 48 42 9z
m-1034 -37 l37 -4 -42 -1 c-41 -2 -43 -1 -42 26 1 22 2 23 6 5 3 -17 13 -23
41 -26z m1312 -7 l0 -40 -182 0 c-100 0 -179 2 -177 5 3 2 82 5 177 6 l172 1
0 34 c0 19 2 34 5 34 3 0 5 -18 5 -40z m-403 -32 c-3 -7 -5 -2 -5 12 0 14 2
19 5 13 2 -7 2 -19 0 -25z m1263 -3 c0 -31 -3 -35 -25 -35 -14 0 -25 4 -25 9
0 5 9 7 20 4 17 -5 20 0 20 26 0 17 2 31 5 31 3 0 5 -16 5 -35z m207 29 c-3
-3 -12 -4 -19 -1 -8 3 -5 6 6 6 11 1 17 -2 13 -5z m343 -21 c0 -5 -16 -9 -35
-10 -19 -2 -35 2 -35 7 0 6 16 10 35 10 19 0 35 -3 35 -7z m-52 -30 c-10 -2
-28 -2 -40 0 -13 2 -5 4 17 4 22 1 32 -1 23 -4z m-2205 -30 c-13 -2 -35 -2
-50 0 -16 2 -5 4 22 4 28 0 40 -2 28 -4z m2055 -3 c81 0 82 0 82 -25 l0 -25
-117 2 -118 2 113 3 c90 3 112 6 112 18 0 15 -67 19 -328 20 -28 0 -52 4 -52
9 0 5 47 6 113 3 61 -4 149 -7 195 -7z m-2080 -100 c0 -45 -2 -50 -8 -25 -11
44 -11 126 0 100 5 -11 8 -45 8 -75z m2166 15 c-22 -16 -38 -20 -29 -6 3 6
-14 12 -37 14 -33 3 -28 4 21 5 59 2 63 1 45 -13z m-2210 -27 c2 -7 8 -40 12
-73 7 -45 13 -61 26 -63 15 -3 17 3 13 45 l-4 48 11 -47 c10 -40 15 -48 35
-48 13 0 23 -6 23 -14 0 -22 8 -24 112 -32 52 -3 131 -9 174 -13 l79 -6 1 -50
c1 -45 1 -46 -3 -7 -3 31 -9 42 -21 42 -27 1 -165 11 -192 15 -14 2 -55 4 -91
4 -58 1 -67 4 -72 21 -4 15 -14 20 -42 20 -23 0 -42 -6 -49 -16 -10 -13 -12
-11 -14 10 -1 14 2 26 8 26 5 0 5 11 -1 28 -9 27 -10 27 -107 30 -53 1 -109 5
-124 8 -25 5 -28 3 -28 -20 0 -16 -6 -26 -15 -26 -8 0 -15 -7 -15 -15 0 -12
-15 -15 -77 -15 -54 0 -73 -3 -63 -10 13 -8 12 -10 -2 -10 -10 0 -18 7 -18 15
0 12 -13 15 -60 15 -35 0 -60 4 -60 10 0 7 43 8 130 4 117 -6 130 -5 130 10 0
10 8 16 21 16 14 0 19 5 16 13 -12 32 6 36 122 26 63 -6 120 -8 127 -5 8 3 14
16 14 30 0 23 -3 24 -95 31 -51 4 -110 5 -130 3 -19 -2 -35 0 -35 4 0 4 59 8
130 8 96 0 132 -3 134 -12z m1739 5 c-23 -2 -64 -2 -90 0 -26 2 -7 3 42 3 50
0 71 -1 48 -3z m-2233 -19 c0 -2 -11 -4 -25 -4 -14 0 -25 4 -25 9 0 4 11 6 25
3 14 -2 25 -6 25 -8z m1069 -41 c1 -10 -28 -13 -116 -12 -90 1 -110 3 -83 10
19 5 68 6 108 3 l72 -6 1 33 c1 32 2 32 9 9 4 -14 8 -31 9 -37z m-826 25 c-5
-10 -113 -9 -178 2 -38 6 -23 7 66 6 64 0 115 -4 112 -8z m2262 -23 c53 -17
23 -18 -40 0 -29 8 -39 14 -25 14 14 0 43 -6 65 -14z m-2406 -11 c8 -7 -93 -3
-139 6 -32 6 -20 7 45 3 50 -3 92 -7 94 -9z m1306 3 c22 -2 -40 -4 -138 -5
-98 -1 -176 1 -174 6 5 6 218 6 312 -1z m-1910 -79 c19 -40 45 -84 56 -98 11
-14 48 -68 83 -121 72 -110 96 -138 221 -264 219 -219 260 -246 393 -260 65
-6 77 2 48 34 -25 30 -86 121 -88 133 -2 7 -16 18 -33 25 -24 9 -26 12 -9 12
35 1 84 -11 79 -19 -3 -5 23 -7 57 -5 35 2 53 2 40 -1 -42 -10 -11 -24 51 -23
53 1 57 3 27 9 l-35 7 42 2 c34 1 45 -4 62 -25 12 -15 21 -32 21 -38 0 -6 -6
-4 -13 5 -8 11 -35 18 -82 22 -39 4 -96 9 -127 13 -32 3 -58 3 -58 -2 0 -5 9
-20 21 -34 11 -14 36 -50 57 -80 20 -30 43 -61 50 -69 7 -8 21 -25 30 -39 9
-13 30 -31 47 -38 29 -13 29 -13 5 -14 -16 0 -33 10 -45 27 -11 14 -27 35 -36
46 -18 23 -95 46 -154 46 -38 0 -39 0 -20 -15 11 -9 35 -23 53 -30 18 -8 30
-19 27 -24 -6 -9 -105 40 -131 64 -6 6 -22 18 -34 26 -114 75 -385 349 -462
468 -21 31 -44 66 -53 77 -8 10 -15 25 -15 31 0 7 -4 14 -8 16 -20 7 -112 169
-112 195 0 25 9 13 45 -59z m3095 63 c0 -5 -9 -7 -20 -4 -11 3 -20 7 -20 9 0
2 9 4 20 4 11 0 20 -4 20 -9z m-1057 -48 c-13 -2 -33 -2 -45 0 -13 2 -3 4 22
4 25 0 35 -2 23 -4z m631 -13 c-11 -4 -36 -5 -55 0 -31 7 -29 8 21 8 39 1 49
-2 34 -8z m-744 -77 c-1 -38 -1 -83 -1 -100 l1 -33 89 0 c49 0 91 4 93 9 2 4
125 10 273 13 150 2 232 1 185 -3 -47 -4 -165 -9 -263 -11 -252 -4 -261 -35
-12 -39 l80 -2 -80 -9 c-44 -4 -90 -7 -102 -5 -23 4 -31 -7 -13 -18 27 -16 -4
-20 -170 -20 l-180 0 0 33 c0 29 -3 32 -29 32 -24 0 -28 -3 -24 -19 4 -17 -1
-20 -43 -23 l-49 -3 -6 -60 -7 -60 2 62 c1 54 -2 63 -19 67 -36 10 -63 6 -69
-9 -3 -8 -16 -14 -28 -14 l-23 2 23 4 c12 2 22 11 22 19 0 12 14 14 90 8 80
-6 90 -5 90 10 0 14 -17 16 -140 16 -127 0 -140 2 -140 18 0 13 2 14 9 4 5 -8
22 -12 42 -10 l34 3 2 75 c0 41 2 87 2 103 l1 27 181 0 180 0 -1 -67z m663 60
c-13 -2 -33 -2 -45 0 -13 2 -3 4 22 4 25 0 35 -2 23 -4z m157 -5 c0 -5 -8 -8
-17 -9 -14 0 -13 -2 4 -9 51 -21 56 -87 8 -103 -16 -6 -38 -19 -47 -29 -9 -11
-22 -17 -27 -13 -16 9 -13 25 5 25 8 0 22 7 30 15 9 8 26 15 40 15 17 0 24 6
24 19 0 24 -16 29 -104 30 -102 2 -94 11 10 11 l89 1 -47 25 c-27 13 -48 26
-48 27 0 2 18 3 40 2 22 0 40 -3 40 -7z m-1902 -15 c-43 -2 -113 -2 -155 0
-43 1 -8 3 77 3 85 0 120 -2 78 -3z m192 -33 c0 -12 -296 -12 -380 0 -37 5 16
8 163 9 139 0 217 -3 217 -9z m1205 -10 l90 -7 -120 0 c-66 -1 -149 3 -185 7
-64 7 -64 7 30 8 52 0 136 -4 185 -8z m378 -17 c-13 -2 -33 -2 -45 0 -13 2 -3
4 22 4 25 0 35 -2 23 -4z m-213 -12 c0 -5 -7 -12 -16 -15 -27 -10 -442 -7
-449 4 -4 6 76 11 222 13 125 1 231 3 236 5 4 1 7 -2 7 -7z m193 -28 c-34 -2
-93 -2 -130 0 -37 2 -9 3 62 3 72 0 102 -1 68 -3z m-1884 -19 c2 -2 -23 -4
-57 -4 -34 0 -62 -2 -62 -5 0 -3 9 -24 19 -46 11 -22 22 -54 25 -72 4 -23 0
-17 -15 21 l-22 52 -58 0 c-33 0 -59 -1 -59 -2 0 -2 9 -27 20 -56 11 -29 20
-57 20 -62 0 -15 -195 -13 -208 3 -19 24 -52 87 -44 87 4 0 18 -20 32 -45 l25
-45 92 0 c51 0 93 3 93 6 0 3 -11 30 -25 60 -14 30 -25 59 -25 64 0 6 27 10
60 10 60 0 60 0 54 26 l-7 26 69 -7 c38 -4 71 -9 73 -11z m101 -14 c0 -5 -2
-10 -4 -10 -3 0 -8 5 -11 10 -3 6 -1 10 4 10 6 0 11 -4 11 -10z m29 -90 c1 -8
-6 -2 -14 14 -8 15 -15 36 -14 45 1 19 28 -37 28 -59z m616 47 c7 -7 6 -7 -3
-2 -8 4 -55 4 -105 0 l-92 -7 -1 -49 c0 -27 3 -44 7 -37 4 6 7 -9 6 -34 -2
-52 -16 -40 -27 22 l-5 35 -94 7 c-51 3 -98 11 -104 17 -6 6 -42 11 -79 11
-61 0 -68 -2 -68 -20 0 -15 -6 -20 -27 -19 -24 2 -25 2 -5 6 14 3 22 12 22 24
0 17 8 19 80 19 44 0 80 -4 80 -9 0 -4 43 -11 96 -14 63 -4 100 -10 106 -19 7
-9 8 -5 4 12 -3 14 -6 30 -6 37 0 8 -24 13 -67 16 l-68 3 83 2 c45 1 82 6 82
11 0 12 172 1 185 -12z m1212 -10 c-18 -4 -70 -5 -117 -3 -47 2 -72 2 -55 -1
16 -3 34 -12 40 -20 12 -16 74 -15 178 3 22 4 37 2 37 -4 0 -13 -88 -23 -225
-26 -60 -2 -94 -1 -75 1 120 12 99 29 -52 39 l-123 8 75 8 c41 5 115 7 165 4
54 -3 84 -1 75 4 -10 6 3 10 40 12 62 3 87 -13 37 -25z m-1612 16 c-22 -3 -43
-10 -47 -16 -5 -8 -8 -8 -8 -1 0 19 12 24 54 22 l41 -1 -40 -4z m428 -70 c-24
-2 -62 -2 -85 0 -24 2 -5 4 42 4 47 0 66 -2 43 -4z m830 -10 l-72 -4 9 -25
c14 -36 12 -43 -5 -14 -26 46 -21 50 63 48 l77 -2 -72 -3z m-373 -133 l120 0
0 44 c0 45 0 45 -42 54 -37 8 -26 10 67 10 70 0 103 -3 90 -8 -11 -5 -36 -9
-56 -9 -40 -1 -49 -13 -49 -63 0 -29 1 -30 40 -26 22 2 40 0 40 -4 0 -5 -11
-8 -24 -8 -28 0 -36 -15 -37 -78 -2 -45 -2 -46 -8 -12 -5 28 -9 15 -20 -70 -7
-58 -19 -118 -26 -135 l-14 -30 6 35 c2 19 9 47 13 62 10 30 23 210 15 193 -3
-6 -9 -37 -15 -70 l-9 -60 2 65 3 65 -170 -3 c-112 -2 -173 1 -180 8 -8 8 46
10 192 8 139 -2 202 0 202 8 0 7 -70 11 -220 11 l-220 0 0 -60 0 -60 170 7
170 7 0 -23 c0 -17 -3 -20 -9 -9 -7 12 -33 13 -139 7 -71 -4 -148 -4 -170 0
l-41 6 0 75 1 75 91 -3 92 -4 5 55 4 55 4 -57 3 -58 119 0z m-1282 83 c-10 -2
-26 -2 -35 0 -10 3 -2 5 17 5 19 0 27 -2 18 -5z m192 -13 l55 -7 -70 0 c-38
-1 -83 3 -100 7 -27 7 -25 8 15 8 25 0 70 -3 100 -8z m1751 -6 c11 -14 9 -15
-27 -9 -25 4 -34 3 -26 -3 11 -7 10 -10 -3 -16 -14 -5 -15 -9 -6 -20 8 -9 8
-16 2 -20 -19 -12 0 -37 23 -31 17 5 18 4 6 -4 -16 -12 -11 -14 35 -12 26 1
27 -1 10 -8 -19 -9 -18 -10 5 -11 20 -2 21 -3 6 -7 -15 -4 -16 -7 -5 -14 10
-6 7 -9 -11 -9 -14 0 -32 5 -40 11 -13 9 -12 10 3 5 9 -3 17 -1 17 4 0 6 -9
10 -20 10 -11 0 -20 5 -20 10 0 13 -129 13 -244 0 -51 -6 -93 -7 -98 -2 -9 9
156 22 270 22 28 0 52 5 52 10 0 6 -11 10 -25 10 -14 0 -25 5 -25 10 0 6 14
10 32 10 30 0 31 1 12 15 -11 8 -14 15 -6 15 6 0 12 5 12 11 0 7 -43 8 -135 3
-78 -4 -135 -3 -135 2 0 5 58 10 128 12 101 3 187 12 198 21 1 1 7 -6 15 -15z
m-1311 -20 c0 -11 24 -14 134 -14 152 0 146 4 146 -87 0 -67 -6 -66 -15 2 -4
28 -9 52 -11 54 -2 2 -60 3 -128 2 -112 -2 -124 -1 -129 16 -2 10 -8 27 -13
37 -5 14 -4 17 4 12 7 -4 12 -14 12 -22z m-602 9 c-16 -2 -40 -2 -55 0 -16 2
-3 4 27 4 30 0 43 -2 28 -4z m360 0 c-15 -2 -42 -2 -60 0 -18 2 -6 4 27 4 33
0 48 -2 33 -4z m-483 -70 c21 -38 45 -76 53 -85 8 -10 11 -18 6 -18 -5 0 -32
38 -61 85 -28 47 -48 85 -44 85 4 0 24 -30 46 -67z m384 51 c8 -7 -164 -2
-194 6 -17 5 17 6 80 3 61 -3 112 -7 114 -9z m291 -4 c0 -20 -4 -20 -90 -14
-73 6 -90 4 -90 -7 0 -9 -3 -10 -8 -3 -4 6 -14 14 -22 17 -8 3 32 6 90 8 86 2
96 3 55 9 l-50 7 58 1 c51 2 57 0 57 -18z m-173 -72 c-3 -7 -5 -2 -5 12 0 14
2 19 5 13 2 -7 2 -19 0 -25z m1626 -12 c6 -16 -19 -43 -30 -32 -3 3 0 6 8 6
11 0 11 2 -1 10 -13 9 -13 10 0 11 8 0 4 5 -10 9 l-25 8 26 1 c15 1 29 -5 32
-13z m-1253 -35 c114 -10 114 -10 -45 -5 -88 2 -194 7 -236 10 l-77 6 5 -28
c4 -23 2 -26 -6 -14 -6 8 -11 24 -11 35 0 20 4 20 128 13 70 -5 179 -12 242
-17z m565 5 c16 -12 17 -19 7 -67 l-11 -54 5 56 5 56 -42 6 c-24 3 -98 3 -166
0 -89 -4 -123 -3 -123 5 0 18 300 16 325 -2z m505 4 c-14 -4 -38 -8 -55 -8
-29 0 -29 0 -5 8 14 4 39 8 55 8 29 0 29 0 5 -8z m-112 -17 c-10 -2 -28 -2
-40 0 -13 2 -5 4 17 4 22 1 32 -1 23 -4z m145 0 c-7 -2 -21 -2 -30 0 -10 3 -4
5 12 5 17 0 24 -2 18 -5z m-1053 -23 c50 -4 67 -8 40 -8 -76 -3 -210 10 -210
20 0 6 17 7 43 2 23 -4 80 -10 127 -14z m828 13 c-12 -3 -18 -14 -18 -36 0
-18 -5 -39 -11 -47 -8 -11 -9 -2 -4 34 6 47 6 49 -17 43 -13 -4 -32 -7 -44 -7
-13 0 -24 -10 -31 -27 -10 -27 -10 -27 -9 10 l0 37 75 -1 c42 -1 68 -3 59 -6z
m142 -3 c-14 -4 -34 -8 -45 -9 -16 -1 -17 1 -5 9 8 5 29 9 45 9 29 -1 29 -1 5
-9z m-99 -22 c-23 -6 -37 -6 -44 1 -8 8 2 11 34 10 l44 -1 -34 -10z m-1247
-43 c8 -19 21 -37 28 -39 7 -3 61 -7 120 -9 75 -3 108 -1 110 7 2 8 27 9 83 5
l80 -5 -60 -4 -60 -3 45 -7 45 -7 -53 -1 c-33 -1 -51 2 -47 8 3 6 0 10 -8 10
-10 0 -13 -8 -10 -27 4 -24 3 -25 -7 -10 -9 14 -26 17 -99 17 -129 0 -148 6
-171 51 -21 39 -23 49 -15 49 3 0 11 -16 19 -35z m475 -42 c0 -13 -3 -23 -9
-23 -6 0 -9 23 -9 53 1 44 2 48 9 22 4 -16 8 -40 9 -52z m791 67 c0 -5 -9 -10
-19 -10 -25 0 -38 -20 -20 -31 11 -7 10 -9 -3 -9 -33 0 -18 44 17 53 11 2 21
5 23 6 1 0 2 -3 2 -9z m-740 -56 c0 -15 4 -23 11 -19 6 4 36 4 67 -1 51 -7 54
-8 27 -15 -20 -4 2 -7 63 -8 88 -1 92 -2 92 -23 0 -13 -5 -30 -11 -38 -8 -12
-9 -10 -7 10 l3 25 -121 3 -120 3 -12 -62 c-11 -62 -17 -77 -27 -67 -3 3 -1
17 5 32 5 15 10 65 11 112 0 47 5 82 10 78 5 -3 9 -16 9 -30z m435 -41 c-3
-25 -9 -42 -12 -39 -3 3 -2 31 2 63 5 32 10 50 13 39 2 -10 1 -38 -3 -63z
m-48 20 c-3 -10 -5 -2 -5 17 0 19 2 27 5 18 2 -10 2 -26 0 -35z m148 7 c-4
-12 -9 -19 -12 -17 -3 3 -2 15 2 27 4 12 9 19 12 17 3 -3 2 -15 -2 -27z m205
15 c0 -11 -10 -15 -37 -13 -37 1 -37 1 -5 5 17 2 32 8 32 14 0 5 2 9 5 9 3 0
5 -7 5 -15z m-384 -51 c-4 -20 -10 -34 -13 -30 -3 3 -2 21 1 42 4 20 10 34 13
30 3 -3 2 -21 -1 -42z m-26 26 c0 -6 -23 -9 -52 -8 l-53 1 50 7 c28 4 51 8 53
8 1 1 2 -2 2 -8z m307 -12 c-3 -8 -6 -5 -6 6 -1 11 2 17 5 13 3 -3 4 -12 1
-19z m97 -9 c-3 -5 -12 -9 -20 -9 -8 0 -17 -7 -20 -15 -4 -8 -11 -15 -17 -15
-7 0 -7 4 1 12 16 16 15 28 -3 28 -8 0 -15 3 -15 8 0 4 18 6 40 4 22 -2 37 -8
34 -13z m-1334 -9 c0 -5 -4 -10 -10 -10 -5 0 -10 5 -10 10 0 6 5 10 10 10 6 0
10 -4 10 -10z m970 -47 c-10 -16 -11 -15 -6 7 3 14 6 32 7 40 1 8 4 5 6 -7 2
-12 -1 -30 -7 -40z m147 35 c-3 -8 -6 -5 -6 6 -1 11 2 17 5 13 3 -3 4 -12 1
-19z m127 -21 c-38 -42 -107 -148 -101 -154 3 -2 20 11 39 29 18 19 23 22 10
7 -18 -20 -20 -28 -10 -32 9 -4 8 -6 -4 -6 -9 -1 -20 -6 -24 -13 -4 -7 -3 -8
4 -4 7 4 12 2 12 -4 0 -13 79 -4 95 11 5 5 17 9 27 9 10 0 32 9 50 20 l33 20
-75 0 c-47 0 -81 -5 -90 -12 -12 -11 -12 -10 0 5 12 16 26 18 96 16 58 -2 87
1 98 10 9 8 19 12 21 9 10 -9 -87 -68 -138 -84 -28 -8 -77 -24 -107 -34 -49
-17 -118 -32 -215 -47 -21 -3 -26 -1 -15 5 8 6 40 13 70 17 68 8 132 25 145
38 6 6 1 7 -15 2 -14 -4 -47 -9 -75 -11 l-50 -4 40 14 c22 9 41 20 43 25 2 5
12 19 23 32 11 13 30 39 42 59 11 19 26 40 32 46 5 7 19 24 29 38 10 14 21 24
24 21 3 -3 -4 -15 -14 -28z m-1215 -21 c-3 -3 -11 5 -18 17 -13 21 -12 21 5 5
10 -10 16 -20 13 -22z m328 12 c-3 -8 -6 -5 -6 6 -1 11 2 17 5 13 3 -3 4 -12
1 -19z m745 -10 c-7 -7 -12 -8 -12 -2 0 14 12 26 19 19 2 -3 -1 -11 -7 -17z
m-165 -20 c-3 -7 -5 -2 -5 12 0 14 2 19 5 13 2 -7 2 -19 0 -25z m80 10 c-3 -8
-6 -5 -6 6 -1 11 2 17 5 13 3 -3 4 -12 1 -19z m237 -17 c-10 -17 -22 -31 -26
-31 -5 0 2 15 14 34 28 42 37 39 12 -3z m346 35 c0 -8 -71 -46 -86 -46 -8 0
-28 -7 -44 -15 -17 -9 -30 -13 -30 -10 0 2 18 14 40 25 22 11 40 18 40 15 0
-3 17 3 38 14 41 22 42 23 42 17z m-1143 -100 c32 -3 123 -9 203 -12 l145 -6
13 47 c16 61 24 55 10 -9 l-10 -49 -204 6 c-223 7 -220 8 -185 -50 11 -17 17
-34 13 -37 -6 -7 -41 61 -42 82 0 6 -12 12 -26 12 -23 0 -26 -3 -20 -27 7 -32
-7 -13 -18 25 -6 19 -4 22 19 22 21 0 26 4 22 18 -16 50 -15 62 2 25 19 -40
21 -41 78 -47z m-388 12 c17 -34 29 -63 27 -65 -3 -4 -66 114 -66 124 0 13 13
-6 39 -59z m1021 54 c0 -5 -7 -17 -16 -28 -8 -10 -14 -14 -11 -9 2 6 7 18 10
28 7 17 17 23 17 9z m-135 -42 c-4 -17 -9 -29 -12 -26 -3 2 -2 19 2 36 4 17 9
29 12 26 3 -2 2 -19 -2 -36z m-30 0 c-4 -12 -9 -19 -12 -17 -3 3 -2 15 2 27 4
12 9 19 12 17 3 -3 2 -15 -2 -27z m-1155 -27 c0 -8 91 -54 144 -73 16 -6 27
-13 24 -15 -3 -3 -22 2 -43 10 -20 9 -44 14 -51 11 -8 -3 -13 0 -11 6 1 6 -4
13 -12 16 -9 3 -11 0 -6 -8 4 -7 4 -11 -1 -8 -5 2 -24 10 -41 17 -31 12 -41
29 -26 44 9 9 23 9 23 0z m1167 -45 c-3 -7 -5 -2 -5 12 0 14 2 19 5 13 2 -7 2
-19 0 -25z m-952 -8 l20 -9 -20 0 c-11 0 -29 4 -40 9 l-20 9 20 0 c11 0 29 -4
40 -9z m135 -24 c38 -8 53 -14 35 -14 -16 0 -57 5 -90 13 -78 17 -30 18 55 1z
m805 -16 c-4 -12 -9 -19 -12 -17 -3 3 -2 15 2 27 4 12 9 19 12 17 3 -3 2 -15
-2 -27z m-534 -12 c18 -37 39 -45 129 -49 l65 -2 -85 -7 c-47 -3 -90 -2 -96 2
-6 4 -46 12 -90 18 -43 5 -95 12 -114 15 -19 3 -50 8 -69 11 -18 3 -31 7 -29
10 4 4 172 -17 262 -32 28 -5 37 -4 32 4 -4 7 -22 13 -39 13 l-32 1 30 7 c20
4 26 9 18 14 -14 9 -18 27 -5 27 4 0 14 -15 23 -32z m-266 -33 c72 -18 121
-34 110 -34 -11 -1 -56 8 -100 20 -44 11 -98 25 -119 30 -22 5 -46 14 -55 20
-18 12 -25 13 164 -36z m170 35 c29 -7 28 -8 -10 -8 -22 0 -51 4 -65 8 -23 7
-22 8 10 8 19 0 49 -4 65 -8z m710 0 c-28 -12 -65 -12 -65 0 0 6 19 10 43 9
32 0 37 -2 22 -9z m-99 -46 c-4 -9 -9 -15 -11 -12 -3 3 -3 13 1 22 4 9 9 15
11 12 3 -3 3 -13 -1 -22z m-283 -21 c-7 -2 -19 -2 -25 0 -7 3 -2 5 12 5 14 0
19 -2 13 -5z"/>
<path d="M2775 4230 c-36 -5 -17 -7 70 -7 88 -1 109 2 80 8 -45 9 -78 9 -150
-1z"/>
<path d="M3050 4233 c0 -6 19 -15 43 -21 l42 -11 -42 2 c-24 2 -43 -1 -43 -5
0 -7 8 -10 65 -21 11 -3 -61 -3 -160 -1 -186 3 -255 -2 -255 -17 0 -5 91 -9
203 -9 188 0 286 -7 414 -28 41 -7 50 -6 46 5 -3 7 -1 13 5 13 6 0 12 -4 14
-8 4 -13 68 -23 68 -12 0 5 -15 14 -32 19 -23 6 -27 10 -13 11 29 2 -79 36
-155 49 -69 11 -127 24 -172 36 -17 4 -28 3 -28 -2z m123 -40 c-7 -2 -19 -2
-25 0 -7 3 -2 5 12 5 14 0 19 -2 13 -5z m92 -13 c17 -7 16 -9 -10 -10 -26 -1
-27 -3 -10 -10 17 -7 15 -9 -10 -8 -16 0 -41 4 -55 8 -25 8 -24 8 5 9 23 1 27
3 15 11 -11 7 -8 10 15 9 17 0 39 -4 50 -9z m82 -16 c34 -9 17 -24 -25 -23
-23 1 -29 3 -17 7 l20 5 -20 8 -20 8 20 0 c11 0 30 -2 42 -5z"/>
<path d="M2608 4215 c-2 -3 -40 -10 -84 -16 -43 -6 -101 -17 -129 -24 -133
-37 -157 -44 -163 -49 -3 -3 1 -6 9 -6 11 0 11 -2 -1 -10 -8 -5 -22 -10 -30
-10 -13 0 -13 1 0 10 22 14 -3 12 -36 -3 -36 -15 -46 -43 -12 -33 13 4 57 11
100 15 48 5 82 14 92 24 21 20 20 27 -1 28 -10 0 7 7 37 15 30 8 61 13 70 11
8 -2 -4 -8 -27 -12 -56 -10 -66 -34 -15 -37 34 -1 32 -2 -13 -8 -47 -6 -45 -7
25 -7 41 -1 102 3 135 7 l60 7 -75 3 c-68 2 -71 3 -35 11 56 11 135 11 135 -1
0 -5 60 -11 148 -12 142 -3 147 -4 150 -25 3 -19 8 -21 65 -17 40 2 53 1 37
-4 -22 -7 -19 -9 24 -15 27 -4 70 -6 95 -5 l46 1 -55 7 -55 7 57 1 c31 1 60
-2 63 -8 4 -6 55 -10 123 -9 75 0 110 4 97 9 -11 5 -15 9 -10 9 18 2 -20 21
-40 20 l-20 0 20 -9 c17 -7 15 -9 -10 -8 -16 0 -41 4 -55 8 -25 8 -25 8 5 10
23 2 19 5 -20 11 -160 26 -261 34 -442 34 -184 0 -202 1 -198 16 3 10 -1 19
-11 23 -31 12 -3 21 64 20 l67 -1 -60 4 c-42 3 -55 7 -45 13 11 7 1 10 -31 10
-25 0 -48 -2 -51 -5z m21 -42 c-1 -22 -2 -23 -6 -8 -3 11 -10 23 -17 27 -7 5
-5 8 7 8 12 0 17 -7 16 -27z m-79 7 c-14 -4 -34 -8 -45 -8 l-20 -1 20 9 c11 5
31 8 45 8 l25 0 -25 -8z m-235 -50 c-11 -5 -27 -9 -35 -9 -13 -1 -13 0 0 9 8
5 24 9 35 9 l20 0 -20 -9z m770 -20 c44 -8 41 -9 -27 -5 -66 3 -78 1 -78 -12
0 -9 -3 -14 -6 -10 -4 3 -4 13 -1 22 7 17 35 18 112 5z m173 -17 c-16 -2 -40
-2 -55 0 -16 2 -3 4 27 4 30 0 43 -2 28 -4z"/>
<path d="M3438 4143 c7 -3 16 -2 19 1 4 3 -2 6 -13 5 -11 0 -14 -3 -6 -6z"/>
<path d="M3527 4105 c3 -8 9 -12 14 -9 12 7 11 11 -5 17 -10 4 -13 1 -9 -8z"/>
<path d="M2745 4104 c-16 -2 -118 -8 -225 -14 -194 -10 -314 -22 -400 -40 -77
-16 120 -2 437 31 50 5 127 9 170 10 43 0 101 4 128 9 l50 7 -65 0 c-36 0 -78
-2 -95 -3z"/>
<path d="M2910 4085 c0 -8 5 -15 10 -15 6 0 10 7 10 15 0 8 -4 15 -10 15 -5 0
-10 -7 -10 -15z"/>
<path d="M3561 4097 c2 -2 20 -14 39 -26 l35 -23 -30 26 c-16 14 -34 26 -39
26 -5 0 -7 -1 -5 -3z"/>
<path d="M3585 3980 c3 -5 11 -10 16 -10 6 0 7 5 4 10 -3 6 -11 10 -16 10 -6
0 -7 -4 -4 -10z"/>
<path d="M3653 3973 c9 -2 23 -2 30 0 6 3 -1 5 -18 5 -16 0 -22 -2 -12 -5z"/>
<path d="M3133 3963 c26 -2 67 -2 90 0 23 2 2 3 -48 3 -49 0 -68 -1 -42 -3z"/>
<path d="M1805 3750 l-20 -9 20 -1 20 -1 -20 -9 c-17 -7 -15 -9 10 -8 17 0 44
4 60 8 l30 8 -35 2 -35 2 30 8 30 8 -35 0 c-19 0 -44 -3 -55 -8z"/>
<path d="M2200 3699 c-25 -4 -75 -8 -112 -8 -48 -1 -68 -5 -68 -14 0 -9 44
-12 193 -12 187 0 206 3 207 33 0 14 -143 15 -220 1z"/>
<path d="M2110 3650 c-19 -5 24 -6 95 -3 72 3 132 7 134 9 8 7 -194 1 -229 -6z"/>
<path d="M2343 3603 c9 -2 25 -2 35 0 9 3 1 5 -18 5 -19 0 -27 -2 -17 -5z"/>
<path d="M2288 3593 c6 -2 18 -2 25 0 6 3 1 5 -13 5 -14 0 -19 -2 -12 -5z"/>
<path d="M2218 3583 c7 -3 16 -2 19 1 4 3 -2 6 -13 5 -11 0 -14 -3 -6 -6z"/>
<path d="M2155 3570 c-8 -13 5 -13 25 0 13 8 13 10 -2 10 -9 0 -20 -4 -23 -10z"/>
<path d="M2105 3550 c-3 -5 -2 -10 4 -10 5 0 13 5 16 10 3 6 2 10 -4 10 -5 0
-13 -4 -16 -10z"/>
<path d="M1260 3400 c0 -5 5 -10 10 -10 6 0 10 5 10 10 0 6 -4 10 -10 10 -5 0
-10 -4 -10 -10z"/>
<path d="M993 2273 c9 -2 23 -2 30 0 6 3 -1 5 -18 5 -16 0 -22 -2 -12 -5z"/>
<path d="M3038 3883 c18 -2 45 -2 60 0 15 2 0 4 -33 4 -33 0 -45 -2 -27 -4z"/>
<path d="M2630 3429 c0 -5 5 -7 10 -4 6 3 10 8 10 11 0 2 -4 4 -10 4 -5 0 -10
-5 -10 -11z"/>
<path d="M3219 3813 c-12 -16 -12 -16 1 -6 8 6 31 13 50 16 l35 4 -36 1 c-24
1 -41 -4 -50 -15z"/>
<path d="M3175 3800 c3 -5 10 -10 16 -10 5 0 9 5 9 10 0 6 -7 10 -16 10 -8 0
-12 -4 -9 -10z"/>
<path d="M3532 3452 c-14 -24 -2 -24 -163 -7 -34 4 -49 2 -44 -5 3 -5 41 -11
83 -12 73 -1 74 -2 27 -8 -47 -6 -45 -7 28 -8 81 -2 93 4 85 45 -3 16 -5 15
-16 -5z"/>
<path d="M3588 3462 c-16 -2 -28 -9 -28 -17 0 -10 7 -12 30 -5 20 6 30 5 30
-2 0 -6 3 -9 6 -5 13 12 -13 32 -38 29z"/>
<path d="M3330 3406 c0 -8 5 -18 12 -22 7 -5 8 -3 3 6 -4 7 -2 16 6 21 11 7
10 9 -3 9 -10 0 -18 -6 -18 -14z"/>
<path d="M3438 3393 c23 -2 61 -2 85 0 23 2 4 4 -43 4 -47 0 -66 -2 -42 -4z"/>
<path d="M3598 3393 c7 -3 16 -2 19 1 4 3 -2 6 -13 5 -11 0 -14 -3 -6 -6z"/>
<path d="M3498 3373 c7 -3 16 -2 19 1 4 3 -2 6 -13 5 -11 0 -14 -3 -6 -6z"/>
<path d="M2630 3551 c0 -5 6 -12 13 -14 10 -4 10 -6 0 -6 -7 -1 -13 -6 -13
-12 0 -8 4 -8 14 1 8 6 12 18 9 26 -6 16 -23 19 -23 5z"/>
<path d="M3758 3368 c6 -6 18 -8 28 -6 14 3 12 5 -9 10 -19 3 -25 2 -19 -4z"/>
<path d="M3820 3305 c0 -8 5 -15 10 -15 6 0 10 7 10 15 0 8 -4 15 -10 15 -5 0
-10 -7 -10 -15z"/>
<path d="M3713 3273 c9 -2 25 -2 35 0 9 3 1 5 -18 5 -19 0 -27 -2 -17 -5z"/>
<path d="M3720 3250 l-25 -8 27 -1 c15 -1 30 4 33 9 7 11 0 11 -35 0z"/>
<path d="M3958 3213 c28 -2 76 -2 105 0 28 2 5 3 -53 3 -58 0 -81 -1 -52 -3z"/>
<path d="M4017 3193 c18 -2 50 -2 70 0 21 2 7 4 -32 4 -38 0 -55 -2 -38 -4z"/>
<path d="M4155 3190 c27 -12 35 -12 35 0 0 6 -12 10 -27 9 -25 0 -26 -1 -8 -9z"/>
<path d="M3878 3173 c7 -3 16 -2 19 1 4 3 -2 6 -13 5 -11 0 -14 -3 -6 -6z"/>
<path d="M2210 3028 c0 -17 3 -19 9 -9 5 7 15 17 22 22 10 6 8 9 -8 9 -17 0
-23 -6 -23 -22z"/>
<path d="M2291 3035 c-1 -17 -3 -18 -11 -5 -8 13 -10 12 -10 -2 0 -10 5 -18
10 -18 6 0 10 -7 10 -15 0 -10 10 -15 31 -15 30 0 31 1 25 32 -7 35 8 28 17
-7 3 -14 5 -11 6 10 1 24 -3 31 -20 32 -16 2 -20 -3 -16 -18 3 -10 1 -22 -4
-25 -5 -3 -10 7 -10 23 l-1 28 -8 -30 -7 -30 -5 30 c-3 18 -6 22 -7 10z"/>
<path d="M2250 2990 c0 -5 5 -10 10 -10 6 0 10 5 10 10 0 6 -4 10 -10 10 -5 0
-10 -4 -10 -10z"/>
<path d="M4053 2993 c9 -2 25 -2 35 0 9 3 1 5 -18 5 -19 0 -27 -2 -17 -5z"/>
<path d="M4115 2880 c-6 -18 -16 -20 -88 -21 -77 -1 -79 -2 -37 -10 25 -6 63
-8 85 -6 22 2 51 0 64 -5 19 -7 22 -5 17 7 -3 10 1 15 12 15 13 0 14 2 3 9 -7
5 -10 14 -7 20 5 7 -2 11 -18 11 -16 0 -27 -7 -31 -20z m12 -22 c-3 -8 -6 -5
-6 6 -1 11 2 17 5 13 3 -3 4 -12 1 -19z"/>
<path d="M4253 2783 c15 -2 37 -2 50 0 12 2 0 4 -28 4 -27 0 -38 -2 -22 -4z"/>
<path d="M3420 3033 l0 -33 80 0 c64 0 80 3 80 15 0 12 -15 15 -75 15 -43 0
-75 4 -75 10 0 6 39 10 97 10 53 0 94 2 92 4 -3 3 -48 6 -102 8 l-97 3 0 -32z"/>
<path d="M2695 2675 c-16 -13 -26 -27 -22 -31 4 -4 19 5 33 20 35 34 28 41
-11 11z"/>
<path d="M3790 2720 c0 -23 -4 -30 -20 -30 -13 0 -20 -7 -20 -20 0 -15 7 -20
25 -20 23 0 25 3 25 50 0 28 -2 50 -5 50 -3 0 -5 -13 -5 -30z"/>
<path d="M4018 2753 c12 -2 30 -2 40 0 9 3 -1 5 -23 4 -22 0 -30 -2 -17 -4z"/>
<path d="M4558 2543 c23 -2 61 -2 85 0 23 2 4 4 -43 4 -47 0 -66 -2 -42 -4z"/>
<path d="M4178 1863 c7 -3 16 -2 19 1 4 3 -2 6 -13 5 -11 0 -14 -3 -6 -6z"/>
<path d="M4000 1841 c0 -14 6 -17 23 -14 13 3 24 11 24 19 0 8 -10 14 -24 14
-16 0 -23 -6 -23 -19z"/>
<path d="M3480 1720 c0 -20 4 -20 108 -14 59 4 109 8 111 10 2 2 -43 5 -100 6
-80 1 -94 3 -59 8 l45 7 -52 1 c-47 2 -53 0 -53 -18z"/>
<path d="M2320 1698 c0 -9 4 -28 10 -42 l10 -26 186 0 186 0 -7 31 c-5 22 -3
34 6 40 8 5 -75 9 -189 11 -184 3 -202 1 -202 -14z"/>
<path d="M3738 1713 c6 -2 18 -2 25 0 6 3 1 5 -13 5 -14 0 -19 -2 -12 -5z"/>
<path d="M4238 1583 c7 -3 16 -2 19 1 4 3 -2 6 -13 5 -11 0 -14 -3 -6 -6z"/>
<path d="M2750 1320 l0 -100 124 0 125 0 4 48 c2 33 4 24 5 -30 l2 -78 164 0
c159 0 164 1 159 20 -4 16 -14 20 -47 20 -30 0 -37 3 -26 10 10 7 -14 10 -77
10 l-92 0 -7 36 c-4 20 -4 65 0 100 l7 64 -171 0 -170 0 0 -100z m158 3 l77
-10 -82 -2 c-81 -1 -83 -1 -83 -26 0 -14 -4 -25 -9 -25 -6 0 -6 12 -1 30 10
35 10 32 11 68 l2 27 4 -26 c4 -25 9 -27 81 -36z m290 -130 c-21 -2 -57 -2
-80 0 -24 2 -7 4 37 4 44 0 63 -2 43 -4z"/>
<path d="M2533 1033 c31 -2 83 -2 115 0 31 2 5 3 -58 3 -63 0 -89 -1 -57 -3z"/>
<path d="M3336 555 c-3 -9 0 -15 9 -15 8 0 15 7 15 15 0 8 -4 15 -9 15 -5 0
-11 -7 -15 -15z"/>
<path d="M1971 596 c2 -2 15 -9 29 -15 24 -11 24 -11 6 3 -16 13 -49 24 -35
12z"/>
<path d="M3581 3796 c8 -8 88 -10 95 -3 4 4 -17 7 -46 7 -29 0 -51 -2 -49 -4z"/>
<path d="M3625 3730 c3 -5 8 -10 11 -10 2 0 4 5 4 10 0 6 -5 10 -11 10 -5 0
-7 -4 -4 -10z"/>
<path d="M3787 3696 c-5 -13 2 -16 41 -14 40 1 42 2 12 5 -19 3 -38 9 -41 15
-4 5 -9 3 -12 -6z"/>
<path d="M3398 3673 c7 -3 16 -2 19 1 4 3 -2 6 -13 5 -11 0 -14 -3 -6 -6z"/>
<path d="M3646 3615 c-3 -8 -1 -15 4 -15 6 0 10 7 10 15 0 8 -2 15 -4 15 -2 0
-6 -7 -10 -15z"/>
<path d="M3848 3593 c12 -2 32 -2 45 0 12 2 2 4 -23 4 -25 0 -35 -2 -22 -4z"/>
<path d="M4018 2063 c18 -2 45 -2 60 0 15 2 0 4 -33 4 -33 0 -45 -2 -27 -4z"/>
<path d="M4253 2033 c9 -2 25 -2 35 0 9 3 1 5 -18 5 -19 0 -27 -2 -17 -5z"/>
<path d="M4448 1833 c7 -3 16 -2 19 1 4 3 -2 6 -13 5 -11 0 -14 -3 -6 -6z"/>
<path d="M2678 413 c7 -3 16 -2 19 1 4 3 -2 6 -13 5 -11 0 -14 -3 -6 -6z"/>
</g>
</svg>
